<svg xmlns="http://www.w3.org/2000/svg" xmlns:xlink="http://www.w3.org/1999/xlink" width="400" zoomAndPan="magnify" viewBox="0 0 300 299.999988" height="400" preserveAspectRatio="xMidYMid meet" version="1.0"><defs><filter x="0%" y="0%" width="100%" height="100%" id="c6a1c6bee4"><feColorMatrix values="0 0 0 0 1 0 0 0 0 1 0 0 0 0 1 0 0 0 1 0" color-interpolation-filters="sRGB"/></filter><g/><mask id="39702375f3"><g filter="url(#c6a1c6bee4)"><rect x="-30" width="360" fill="#000000" y="-29.999999" height="359.999986" fill-opacity="0.9098"/></g></mask><clipPath id="71fc360a38"><path d="M 0.605469 0.253906 L 283.355469 0.253906 L 283.355469 253.003906 L 0.605469 253.003906 Z M 0.605469 0.253906 " clip-rule="nonzero"/></clipPath><clipPath id="c919f27e18"><rect x="0" width="284" y="0" height="256"/></clipPath><clipPath id="a9672a2023"><path d="M 209.027344 63.199219 L 242.777344 63.199219 L 242.777344 96.949219 L 209.027344 96.949219 Z M 209.027344 63.199219 " clip-rule="nonzero"/></clipPath><clipPath id="adf7c502ee"><path d="M 55.410156 216.828125 L 89.160156 216.828125 L 89.160156 250.578125 L 55.410156 250.578125 Z M 55.410156 216.828125 " clip-rule="nonzero"/></clipPath><clipPath id="2d59c4fb59"><path d="M 48.53125 87.941406 L 82.28125 87.941406 L 82.28125 121.691406 L 48.53125 121.691406 Z M 48.53125 87.941406 " clip-rule="nonzero"/></clipPath><clipPath id="3a69318038"><path d="M 192.144531 206.828125 L 225.894531 206.828125 L 225.894531 240.578125 L 192.144531 240.578125 Z M 192.144531 206.828125 " clip-rule="nonzero"/></clipPath></defs><g mask="url(#39702375f3)"><g transform="matrix(1, 0, 0, 1, 8, 24)"><g clip-path="url(#c919f27e18)"><g clip-path="url(#71fc360a38)"><path fill="#4282aa" d="M 141.980469 0.253906 C 63.90625 0.253906 0.613281 56.835938 0.613281 126.628906 C 0.613281 196.425781 63.90625 253.003906 141.980469 253.003906 C 220.058594 253.003906 283.351562 196.425781 283.351562 126.628906 C 283.351562 56.835938 220.058594 0.253906 141.980469 0.253906 " fill-opacity="1" fill-rule="nonzero"/></g></g></g></g><g fill="#ffffff" fill-opacity="1"><g transform="translate(92.586696, 137.958143)"><g><path d="M 14.902344 0 L 16.410156 0 L 13.054688 -15.390625 L 8.320312 -3.035156 L 3.585938 -15.390625 L 0.210938 0 L 1.742188 0 L 3.96875 -10.273438 L 8.320312 0.847656 L 12.652344 -10.273438 Z M 14.902344 0 "/></g></g></g><g fill="#ffffff" fill-opacity="1"><g transform="translate(109.208541, 137.958143)"><g><path d="M 7.175781 -6.792969 L 12.632812 -14.4375 L 10.742188 -14.4375 L 6.433594 -8.257812 L 2.121094 -14.4375 L 0.210938 -14.4375 L 5.691406 -6.773438 L 5.691406 0 L 7.175781 0 Z M 7.175781 -6.792969 "/></g></g></g><g fill="#ffffff" fill-opacity="1"><g transform="translate(122.051728, 137.958143)"><g/></g></g><g fill="#ffffff" fill-opacity="1"><g transform="translate(127.783397, 137.958143)"><g><path d="M 3.078125 -7.15625 L 3.078125 -13.015625 L 6.433594 -13.015625 C 7.304688 -13.015625 8.003906 -12.738281 8.535156 -12.207031 C 9.042969 -11.65625 9.320312 -10.976562 9.320312 -10.125 C 9.320312 -9.257812 9.042969 -8.554688 8.492188 -7.980469 C 7.941406 -7.429688 7.261719 -7.15625 6.433594 -7.15625 Z M 10.804688 -10.085938 C 10.804688 -11.359375 10.339844 -12.398438 9.445312 -13.226562 C 8.554688 -14.03125 7.492188 -14.4375 6.21875 -14.4375 L 1.59375 -14.4375 L 1.59375 0 L 3.078125 0 L 3.078125 -5.710938 L 6.21875 -5.710938 C 7.492188 -5.710938 8.578125 -6.113281 9.445312 -6.921875 C 10.339844 -7.769531 10.804688 -8.808594 10.804688 -10.085938 Z M 10.804688 -10.085938 "/></g></g></g><g fill="#ffffff" fill-opacity="1"><g transform="translate(139.013225, 137.958143)"><g><path d="M 10.167969 0 L 10.167969 -1.378906 L 3.078125 -1.378906 L 3.078125 -6.515625 L 9.957031 -6.515625 L 9.957031 -7.917969 L 3.078125 -7.917969 L 3.078125 -13.054688 L 10.167969 -13.054688 L 10.167969 -14.4375 L 1.59375 -14.4375 L 1.59375 0 Z M 10.167969 0 "/></g></g></g><g fill="#ffffff" fill-opacity="1"><g transform="translate(150.773763, 137.958143)"><g><path d="M 3.078125 -7.132812 L 3.078125 -13.015625 L 6.433594 -13.015625 C 7.304688 -13.015625 8.003906 -12.738281 8.535156 -12.1875 C 9.042969 -11.632812 9.320312 -10.953125 9.320312 -10.105469 C 9.320312 -9.257812 9.042969 -8.554688 8.492188 -7.980469 C 7.941406 -7.410156 7.261719 -7.132812 6.433594 -7.132812 Z M 10.804688 -10.085938 C 10.804688 -11.316406 10.339844 -12.378906 9.445312 -13.203125 C 8.578125 -14.011719 7.492188 -14.4375 6.21875 -14.4375 L 1.59375 -14.4375 L 1.59375 0 L 3.078125 0 L 3.078125 -5.710938 L 4.796875 -5.710938 L 9.042969 0 L 11.039062 0 L 6.582031 -5.710938 C 7.707031 -5.773438 8.660156 -6.179688 9.445312 -6.921875 C 10.339844 -7.75 10.804688 -8.808594 10.804688 -10.085938 Z M 10.804688 -10.085938 "/></g></g></g><g fill="#ffffff" fill-opacity="1"><g transform="translate(162.322019, 137.958143)"><g><path d="M 5.582031 -6.792969 C 7.453125 -6.347656 8.726562 -5.859375 9.40625 -5.308594 C 9.871094 -4.925781 10.105469 -4.4375 10.105469 -3.84375 C 10.105469 -3.25 9.976562 -2.761719 9.722656 -2.421875 C 9.085938 -1.527344 7.941406 -1.082031 6.328125 -1.082031 C 4.074219 -1.082031 2.800781 -1.847656 2.527344 -3.375 L 0.785156 -3.375 C 1.296875 -0.933594 3.140625 0.277344 6.328125 0.277344 C 7.75 0.277344 8.9375 -0.0195312 9.894531 -0.65625 C 11.039062 -1.402344 11.632812 -2.503906 11.632812 -3.949219 C 11.632812 -5.136719 11.167969 -6.050781 10.234375 -6.6875 C 9.574219 -7.15625 8.511719 -7.578125 7.046875 -7.960938 C 5.5625 -8.34375 4.605469 -8.660156 4.160156 -8.894531 C 3.183594 -9.382812 2.695312 -10.0625 2.71875 -10.953125 C 2.71875 -11.421875 2.800781 -11.824219 3.015625 -12.121094 C 3.566406 -12.949219 4.542969 -13.375 5.945312 -13.375 C 7.917969 -13.375 9.042969 -12.738281 9.339844 -11.507812 L 10.953125 -11.507812 C 10.421875 -13.585938 8.746094 -14.648438 5.945312 -14.648438 C 4.671875 -14.648438 3.546875 -14.308594 2.609375 -13.628906 C 1.65625 -12.949219 1.167969 -11.953125 1.167969 -10.59375 C 1.167969 -8.746094 2.652344 -7.472656 5.582031 -6.792969 Z M 5.582031 -6.792969 "/></g></g></g><g fill="#ffffff" fill-opacity="1"><g transform="translate(174.507122, 137.958143)"><g><path d="M 3.078125 -7.15625 L 3.078125 -13.015625 L 6.433594 -13.015625 C 7.304688 -13.015625 8.003906 -12.738281 8.535156 -12.207031 C 9.042969 -11.65625 9.320312 -10.976562 9.320312 -10.125 C 9.320312 -9.257812 9.042969 -8.554688 8.492188 -7.980469 C 7.941406 -7.429688 7.261719 -7.15625 6.433594 -7.15625 Z M 10.804688 -10.085938 C 10.804688 -11.359375 10.339844 -12.398438 9.445312 -13.226562 C 8.554688 -14.03125 7.492188 -14.4375 6.21875 -14.4375 L 1.59375 -14.4375 L 1.59375 0 L 3.078125 0 L 3.078125 -5.710938 L 6.21875 -5.710938 C 7.492188 -5.710938 8.578125 -6.113281 9.445312 -6.921875 C 10.339844 -7.769531 10.804688 -8.808594 10.804688 -10.085938 Z M 10.804688 -10.085938 "/></g></g></g><g fill="#ffffff" fill-opacity="1"><g transform="translate(185.736951, 137.958143)"><g><path d="M 10.167969 0 L 10.167969 -1.378906 L 3.078125 -1.378906 L 3.078125 -6.515625 L 9.957031 -6.515625 L 9.957031 -7.917969 L 3.078125 -7.917969 L 3.078125 -13.054688 L 10.167969 -13.054688 L 10.167969 -14.4375 L 1.59375 -14.4375 L 1.59375 0 Z M 10.167969 0 "/></g></g></g><g fill="#ffffff" fill-opacity="1"><g transform="translate(197.497493, 137.958143)"><g><path d="M 14.839844 -4.414062 L 13.203125 -4.414062 C 12.695312 -3.480469 11.996094 -2.71875 11.101562 -2.164062 C 10.210938 -1.59375 9.214844 -1.316406 8.152344 -1.316406 C 6.558594 -1.316406 5.203125 -1.890625 4.074219 -3.078125 C 2.972656 -4.203125 2.441406 -5.582031 2.441406 -7.195312 C 2.441406 -8.808594 2.972656 -10.191406 4.074219 -11.335938 C 4.585938 -11.867188 5.203125 -12.292969 5.902344 -12.609375 C 6.582031 -12.929688 7.261719 -13.097656 7.941406 -13.097656 C 8.597656 -13.097656 9.171875 -13.015625 9.679688 -12.867188 C 11.230469 -12.398438 12.398438 -11.464844 13.183594 -10.042969 L 14.820312 -10.042969 C 14.265625 -11.402344 13.394531 -12.503906 12.1875 -13.355469 C 10.953125 -14.203125 9.617188 -14.628906 8.152344 -14.628906 C 6.136719 -14.628906 4.4375 -13.882812 3.035156 -12.417969 C 2.378906 -11.738281 1.867188 -10.933594 1.507812 -10.042969 C 1.125 -9.148438 0.957031 -8.195312 0.957031 -7.195312 C 0.957031 -5.160156 1.632812 -3.4375 3.035156 -1.996094 C 4.4375 -0.507812 6.136719 0.210938 8.152344 0.210938 C 9.617188 0.210938 10.953125 -0.210938 12.207031 -1.0625 C 13.417969 -1.910156 14.289062 -3.015625 14.839844 -4.414062 Z M 14.839844 -4.414062 "/></g></g></g><g fill="#ffffff" fill-opacity="1"><g transform="translate(212.973001, 137.958143)"><g><path d="M 0.425781 -13.097656 L 3.925781 -13.097656 L 3.925781 -0.0429688 L 5.414062 -0.0429688 L 5.414062 -13.097656 L 8.917969 -13.097656 L 8.917969 -14.480469 L 0.425781 -14.480469 Z M 0.425781 -13.097656 "/></g></g></g><g fill="#ffffff" fill-opacity="1"><g transform="translate(222.313503, 137.958143)"><g><path d="M 3.078125 0 L 3.078125 -14.4375 L 1.59375 -14.4375 L 1.59375 0 Z M 3.078125 0 "/></g></g></g><g fill="#ffffff" fill-opacity="1"><g transform="translate(226.983753, 137.958143)"><g><path d="M 6.773438 0.871094 L 13.3125 -14.4375 L 11.699219 -14.4375 L 6.773438 -2.800781 L 1.824219 -14.4375 L 0.210938 -14.4375 Z M 6.773438 0.871094 "/></g></g></g><g fill="#ffffff" fill-opacity="1"><g transform="translate(240.506247, 137.958143)"><g><path d="M 10.167969 0 L 10.167969 -1.378906 L 3.078125 -1.378906 L 3.078125 -6.515625 L 9.957031 -6.515625 L 9.957031 -7.917969 L 3.078125 -7.917969 L 3.078125 -13.054688 L 10.167969 -13.054688 L 10.167969 -14.4375 L 1.59375 -14.4375 L 1.59375 0 Z M 10.167969 0 "/></g></g></g><g fill="#ffffff" fill-opacity="1"><g transform="translate(252.266789, 137.958143)"><g/></g></g><g fill="#ffffff" fill-opacity="1"><g transform="translate(257.998457, 137.958143)"><g><path d="M 3.078125 0 L 3.078125 -14.4375 L 1.59375 -14.4375 L 1.59375 0 Z M 3.078125 0 "/></g></g></g><g fill="#ffffff" fill-opacity="1"><g transform="translate(262.668718, 137.958143)"><g><path d="M 5.582031 -6.792969 C 7.453125 -6.347656 8.726562 -5.859375 9.40625 -5.308594 C 9.871094 -4.925781 10.105469 -4.4375 10.105469 -3.84375 C 10.105469 -3.25 9.976562 -2.761719 9.722656 -2.421875 C 9.085938 -1.527344 7.941406 -1.082031 6.328125 -1.082031 C 4.074219 -1.082031 2.800781 -1.847656 2.527344 -3.375 L 0.785156 -3.375 C 1.296875 -0.933594 3.140625 0.277344 6.328125 0.277344 C 7.75 0.277344 8.9375 -0.0195312 9.894531 -0.65625 C 11.039062 -1.402344 11.632812 -2.503906 11.632812 -3.949219 C 11.632812 -5.136719 11.167969 -6.050781 10.234375 -6.6875 C 9.574219 -7.15625 8.511719 -7.578125 7.046875 -7.960938 C 5.5625 -8.34375 4.605469 -8.660156 4.160156 -8.894531 C 3.183594 -9.382812 2.695312 -10.0625 2.71875 -10.953125 C 2.71875 -11.421875 2.800781 -11.824219 3.015625 -12.121094 C 3.566406 -12.949219 4.542969 -13.375 5.945312 -13.375 C 7.917969 -13.375 9.042969 -12.738281 9.339844 -11.507812 L 10.953125 -11.507812 C 10.421875 -13.585938 8.746094 -14.648438 5.945312 -14.648438 C 4.671875 -14.648438 3.546875 -14.308594 2.609375 -13.628906 C 1.65625 -12.949219 1.167969 -11.953125 1.167969 -10.59375 C 1.167969 -8.746094 2.652344 -7.472656 5.582031 -6.792969 Z M 5.582031 -6.792969 "/></g></g></g><g fill="#ffffff" fill-opacity="1"><g transform="translate(274.850646, 137.958143)"><g/></g></g><g fill="#ffffff" fill-opacity="1"><g transform="translate(202.378907, 157.426227)"><g><path d="M 12.039062 -4.777344 L 12.039062 -14.4375 L 10.550781 -14.4375 L 10.550781 -4.5625 C 10.550781 -3.96875 10.445312 -3.480469 10.234375 -3.078125 C 9.617188 -1.890625 8.429688 -1.296875 6.667969 -1.296875 C 5.519531 -1.296875 4.605469 -1.550781 3.925781 -2.058594 C 3.140625 -2.632812 2.761719 -3.460938 2.761719 -4.5625 L 2.761719 -14.4375 L 1.273438 -14.4375 L 1.273438 -4.777344 C 1.273438 -3.207031 1.785156 -1.972656 2.800781 -1.082031 C 3.757812 -0.234375 5.050781 0.191406 6.667969 0.191406 C 8.257812 0.191406 9.53125 -0.234375 10.507812 -1.082031 C 11.527344 -1.972656 12.039062 -3.207031 12.039062 -4.777344 Z M 12.039062 -4.777344 "/></g></g></g><g fill="#ffffff" fill-opacity="1"><g transform="translate(215.68912, 157.426227)"><g><path d="M 3.078125 -10.636719 L 11.1875 0.890625 L 11.1875 -14.4375 L 9.703125 -14.4375 L 9.703125 -3.820312 L 1.59375 -15.347656 L 1.59375 0 L 3.078125 0 Z M 3.078125 -10.636719 "/></g></g></g><g fill="#ffffff" fill-opacity="1"><g transform="translate(228.46862, 157.426227)"><g><path d="M 3.078125 0 L 3.078125 -14.4375 L 1.59375 -14.4375 L 1.59375 0 Z M 3.078125 0 "/></g></g></g><g fill="#ffffff" fill-opacity="1"><g transform="translate(233.138871, 157.426227)"><g><path d="M 15.796875 -7.195312 C 15.796875 -8.214844 15.582031 -9.171875 15.199219 -10.085938 C 14.820312 -10.976562 14.289062 -11.761719 13.609375 -12.441406 C 12.929688 -13.121094 12.144531 -13.652344 11.25 -14.03125 C 10.339844 -14.414062 9.382812 -14.628906 8.363281 -14.628906 C 7.34375 -14.628906 6.367188 -14.414062 5.476562 -14.03125 C 4.585938 -13.652344 3.800781 -13.121094 3.121094 -12.441406 C 2.441406 -11.761719 1.910156 -10.976562 1.527344 -10.085938 C 1.144531 -9.171875 0.957031 -8.214844 0.957031 -7.195312 C 0.957031 -6.179688 1.144531 -5.203125 1.527344 -4.308594 C 1.910156 -3.417969 2.441406 -2.632812 3.121094 -1.953125 C 3.800781 -1.273438 4.585938 -0.742188 5.476562 -0.359375 C 6.367188 0.0195312 7.34375 0.210938 8.363281 0.210938 C 8.957031 0.210938 9.554688 0.148438 10.125 0 L 16.007812 0 L 16.007812 -1.210938 L 13.84375 -1.210938 C 13.3125 -1.082031 12.757812 -0.957031 12.164062 -0.828125 C 12.695312 -1.144531 13.183594 -1.527344 13.609375 -1.953125 C 14.289062 -2.632812 14.820312 -3.417969 15.199219 -4.308594 C 15.582031 -5.203125 15.796875 -6.179688 15.796875 -7.195312 Z M 14.308594 -7.195312 C 14.308594 -5.5625 13.714844 -4.160156 12.566406 -3.015625 C 11.402344 -1.847656 10 -1.273438 8.363281 -1.273438 C 6.730469 -1.273438 5.328125 -1.847656 4.183594 -3.015625 C 3.015625 -4.160156 2.441406 -5.5625 2.441406 -7.195312 C 2.441406 -8.832031 3.015625 -10.234375 4.183594 -11.402344 C 5.328125 -12.546875 6.730469 -13.140625 8.363281 -13.140625 C 10 -13.140625 11.402344 -12.546875 12.566406 -11.402344 C 13.714844 -10.234375 14.308594 -8.832031 14.308594 -7.195312 Z M 14.308594 -7.195312 "/></g></g></g><g fill="#ffffff" fill-opacity="1"><g transform="translate(249.781944, 157.426227)"><g><path d="M 12.039062 -4.777344 L 12.039062 -14.4375 L 10.550781 -14.4375 L 10.550781 -4.5625 C 10.550781 -3.96875 10.445312 -3.480469 10.234375 -3.078125 C 9.617188 -1.890625 8.429688 -1.296875 6.667969 -1.296875 C 5.519531 -1.296875 4.605469 -1.550781 3.925781 -2.058594 C 3.140625 -2.632812 2.761719 -3.460938 2.761719 -4.5625 L 2.761719 -14.4375 L 1.273438 -14.4375 L 1.273438 -4.777344 C 1.273438 -3.207031 1.785156 -1.972656 2.800781 -1.082031 C 3.757812 -0.234375 5.050781 0.191406 6.667969 0.191406 C 8.257812 0.191406 9.53125 -0.234375 10.507812 -1.082031 C 11.527344 -1.972656 12.039062 -3.207031 12.039062 -4.777344 Z M 12.039062 -4.777344 "/></g></g></g><g fill="#ffffff" fill-opacity="1"><g transform="translate(263.092157, 157.426227)"><g><path d="M 10.167969 0 L 10.167969 -1.378906 L 3.078125 -1.378906 L 3.078125 -6.515625 L 9.957031 -6.515625 L 9.957031 -7.917969 L 3.078125 -7.917969 L 3.078125 -13.054688 L 10.167969 -13.054688 L 10.167969 -14.4375 L 1.59375 -14.4375 L 1.59375 0 Z M 10.167969 0 "/></g></g></g><g fill="#ffffff" fill-opacity="1"><g transform="translate(68.770206, 176.894311)"><g><path d="M 3.078125 0 L 3.078125 -14.4375 L 1.59375 -14.4375 L 1.59375 0 Z M 3.078125 0 "/></g></g></g><g fill="#ffffff" fill-opacity="1"><g transform="translate(73.440457, 176.894311)"><g><path d="M 0.425781 -13.097656 L 3.925781 -13.097656 L 3.925781 -0.0429688 L 5.414062 -0.0429688 L 5.414062 -13.097656 L 8.917969 -13.097656 L 8.917969 -14.480469 L 0.425781 -14.480469 Z M 0.425781 -13.097656 "/></g></g></g><g fill="#ffffff" fill-opacity="1"><g transform="translate(82.780959, 176.894311)"><g><path d="M 2.761719 -15.921875 L 0.933594 -15.921875 L 1.296875 -10.574219 L 2.378906 -10.574219 Z M 2.761719 -15.921875 "/></g></g></g><g fill="#ffffff" fill-opacity="1"><g transform="translate(86.453475, 176.894311)"><g><path d="M 5.582031 -6.792969 C 7.453125 -6.347656 8.726562 -5.859375 9.40625 -5.308594 C 9.871094 -4.925781 10.105469 -4.4375 10.105469 -3.84375 C 10.105469 -3.25 9.976562 -2.761719 9.722656 -2.421875 C 9.085938 -1.527344 7.941406 -1.082031 6.328125 -1.082031 C 4.074219 -1.082031 2.800781 -1.847656 2.527344 -3.375 L 0.785156 -3.375 C 1.296875 -0.933594 3.140625 0.277344 6.328125 0.277344 C 7.75 0.277344 8.9375 -0.0195312 9.894531 -0.65625 C 11.039062 -1.402344 11.632812 -2.503906 11.632812 -3.949219 C 11.632812 -5.136719 11.167969 -6.050781 10.234375 -6.6875 C 9.574219 -7.15625 8.511719 -7.578125 7.046875 -7.960938 C 5.5625 -8.34375 4.605469 -8.660156 4.160156 -8.894531 C 3.183594 -9.382812 2.695312 -10.0625 2.71875 -10.953125 C 2.71875 -11.421875 2.800781 -11.824219 3.015625 -12.121094 C 3.566406 -12.949219 4.542969 -13.375 5.945312 -13.375 C 7.917969 -13.375 9.042969 -12.738281 9.339844 -11.507812 L 10.953125 -11.507812 C 10.421875 -13.585938 8.746094 -14.648438 5.945312 -14.648438 C 4.671875 -14.648438 3.546875 -14.308594 2.609375 -13.628906 C 1.65625 -12.949219 1.167969 -11.953125 1.167969 -10.59375 C 1.167969 -8.746094 2.652344 -7.472656 5.582031 -6.792969 Z M 5.582031 -6.792969 "/></g></g></g><g fill="#ffffff" fill-opacity="1"><g transform="translate(98.638583, 176.894311)"><g/></g></g><g fill="#ffffff" fill-opacity="1"><g transform="translate(104.370251, 176.894311)"><g><path d="M 3.078125 0 L 3.078125 -14.4375 L 1.59375 -14.4375 L 1.59375 0 Z M 3.078125 0 "/></g></g></g><g fill="#ffffff" fill-opacity="1"><g transform="translate(109.040502, 176.894311)"><g><path d="M 14.902344 0 L 16.410156 0 L 13.054688 -15.390625 L 8.320312 -3.035156 L 3.585938 -15.390625 L 0.210938 0 L 1.742188 0 L 3.96875 -10.273438 L 8.320312 0.847656 L 12.652344 -10.273438 Z M 14.902344 0 "/></g></g></g><g fill="#ffffff" fill-opacity="1"><g transform="translate(125.662348, 176.894311)"><g><path d="M 3.078125 -7.15625 L 3.078125 -13.015625 L 6.433594 -13.015625 C 7.304688 -13.015625 8.003906 -12.738281 8.535156 -12.207031 C 9.042969 -11.65625 9.320312 -10.976562 9.320312 -10.125 C 9.320312 -9.257812 9.042969 -8.554688 8.492188 -7.980469 C 7.941406 -7.429688 7.261719 -7.15625 6.433594 -7.15625 Z M 10.804688 -10.085938 C 10.804688 -11.359375 10.339844 -12.398438 9.445312 -13.226562 C 8.554688 -14.03125 7.492188 -14.4375 6.21875 -14.4375 L 1.59375 -14.4375 L 1.59375 0 L 3.078125 0 L 3.078125 -5.710938 L 6.21875 -5.710938 C 7.492188 -5.710938 8.578125 -6.113281 9.445312 -6.921875 C 10.339844 -7.769531 10.804688 -8.808594 10.804688 -10.085938 Z M 10.804688 -10.085938 "/></g></g></g><g fill="#ffffff" fill-opacity="1"><g transform="translate(136.892176, 176.894311)"><g><path d="M 14.308594 -7.261719 C 14.308594 -5.605469 13.714844 -4.203125 12.566406 -3.058594 C 11.402344 -1.890625 10 -1.316406 8.363281 -1.316406 C 6.730469 -1.316406 5.328125 -1.890625 4.183594 -3.058594 C 3.015625 -4.203125 2.441406 -5.605469 2.441406 -7.261719 C 2.441406 -8.875 3.015625 -10.273438 4.183594 -11.441406 C 5.328125 -12.589844 6.730469 -13.183594 8.363281 -13.183594 C 10 -13.183594 11.402344 -12.589844 12.566406 -11.441406 C 13.714844 -10.273438 14.308594 -8.875 14.308594 -7.261719 Z M 15.796875 -7.261719 C 15.796875 -8.28125 15.582031 -9.234375 15.199219 -10.148438 C 14.820312 -11.039062 14.289062 -11.824219 13.609375 -12.503906 C 12.929688 -13.164062 12.144531 -13.691406 11.25 -14.074219 C 10.339844 -14.457031 9.382812 -14.667969 8.363281 -14.667969 C 7.34375 -14.667969 6.367188 -14.457031 5.476562 -14.074219 C 4.585938 -13.691406 3.800781 -13.164062 3.121094 -12.503906 C 2.441406 -11.824219 1.910156 -11.039062 1.527344 -10.148438 C 1.144531 -9.234375 0.957031 -8.28125 0.957031 -7.261719 C 0.957031 -6.242188 1.144531 -5.265625 1.527344 -4.375 C 1.910156 -3.460938 2.441406 -2.675781 3.121094 -1.996094 C 3.800781 -1.316406 4.585938 -0.785156 5.476562 -0.402344 C 6.367188 -0.0195312 7.34375 0.167969 8.363281 0.167969 C 9.382812 0.167969 10.339844 -0.0195312 11.25 -0.402344 C 12.144531 -0.785156 12.929688 -1.316406 13.609375 -1.996094 C 14.289062 -2.675781 14.820312 -3.460938 15.199219 -4.375 C 15.582031 -5.265625 15.796875 -6.242188 15.796875 -7.261719 Z M 15.796875 -7.261719 "/></g></g></g><g fill="#ffffff" fill-opacity="1"><g transform="translate(153.641397, 176.894311)"><g><path d="M 3.078125 -7.132812 L 3.078125 -13.015625 L 6.433594 -13.015625 C 7.304688 -13.015625 8.003906 -12.738281 8.535156 -12.1875 C 9.042969 -11.632812 9.320312 -10.953125 9.320312 -10.105469 C 9.320312 -9.257812 9.042969 -8.554688 8.492188 -7.980469 C 7.941406 -7.410156 7.261719 -7.132812 6.433594 -7.132812 Z M 10.804688 -10.085938 C 10.804688 -11.316406 10.339844 -12.378906 9.445312 -13.203125 C 8.578125 -14.011719 7.492188 -14.4375 6.21875 -14.4375 L 1.59375 -14.4375 L 1.59375 0 L 3.078125 0 L 3.078125 -5.710938 L 4.796875 -5.710938 L 9.042969 0 L 11.039062 0 L 6.582031 -5.710938 C 7.707031 -5.773438 8.660156 -6.179688 9.445312 -6.921875 C 10.339844 -7.75 10.804688 -8.808594 10.804688 -10.085938 Z M 10.804688 -10.085938 "/></g></g></g><g fill="#ffffff" fill-opacity="1"><g transform="translate(165.189654, 176.894311)"><g><path d="M 0.425781 -13.097656 L 3.925781 -13.097656 L 3.925781 -0.0429688 L 5.414062 -0.0429688 L 5.414062 -13.097656 L 8.917969 -13.097656 L 8.917969 -14.480469 L 0.425781 -14.480469 Z M 0.425781 -13.097656 "/></g></g></g><g fill="#ffffff" fill-opacity="1"><g transform="translate(174.530155, 176.894311)"><g><path d="M 3.925781 -5.308594 L 6.558594 -11.953125 L 9.171875 -5.308594 Z M 12.886719 0 L 6.558594 -15.433594 L 0.210938 0 L 1.824219 0 L 3.375 -3.925781 L 9.722656 -3.925781 L 11.273438 0 Z M 12.886719 0 "/></g></g></g><g fill="#ffffff" fill-opacity="1"><g transform="translate(187.628088, 176.894311)"><g><path d="M 3.078125 -10.636719 L 11.1875 0.890625 L 11.1875 -14.4375 L 9.703125 -14.4375 L 9.703125 -3.820312 L 1.59375 -15.347656 L 1.59375 0 L 3.078125 0 Z M 3.078125 -10.636719 "/></g></g></g><g fill="#ffffff" fill-opacity="1"><g transform="translate(200.407582, 176.894311)"><g><path d="M 0.425781 -13.097656 L 3.925781 -13.097656 L 3.925781 -0.0429688 L 5.414062 -0.0429688 L 5.414062 -13.097656 L 8.917969 -13.097656 L 8.917969 -14.480469 L 0.425781 -14.480469 Z M 0.425781 -13.097656 "/></g></g></g><g fill="#ffffff" fill-opacity="1"><g transform="translate(209.748084, 176.894311)"><g/></g></g><g fill="#ffffff" fill-opacity="1"><g transform="translate(215.479752, 176.894311)"><g><path d="M 3.925781 -5.308594 L 6.558594 -11.953125 L 9.171875 -5.308594 Z M 12.886719 0 L 6.558594 -15.433594 L 0.210938 0 L 1.824219 0 L 3.375 -3.925781 L 9.722656 -3.925781 L 11.273438 0 Z M 12.886719 0 "/></g></g></g><g fill="#ffffff" fill-opacity="1"><g transform="translate(228.577675, 176.894311)"><g><path d="M 3.078125 -10.636719 L 11.1875 0.890625 L 11.1875 -14.4375 L 9.703125 -14.4375 L 9.703125 -3.820312 L 1.59375 -15.347656 L 1.59375 0 L 3.078125 0 Z M 3.078125 -10.636719 "/></g></g></g><g fill="#ffffff" fill-opacity="1"><g transform="translate(241.35717, 176.894311)"><g><path d="M 12.800781 -7.21875 C 12.800781 -8.257812 12.589844 -9.214844 12.207031 -10.105469 C 11.824219 -10.996094 11.292969 -11.761719 10.636719 -12.398438 C 9.957031 -13.035156 9.171875 -13.523438 8.28125 -13.882812 C 7.367188 -14.246094 6.390625 -14.4375 5.371094 -14.4375 L 1.59375 -14.4375 L 1.59375 0 L 5.371094 0 C 6.390625 0 7.367188 -0.167969 8.28125 -0.53125 C 9.171875 -0.890625 9.957031 -1.402344 10.636719 -2.039062 C 11.292969 -2.675781 11.824219 -3.417969 12.207031 -4.308594 C 12.589844 -5.203125 12.800781 -6.15625 12.800781 -7.21875 Z M 11.359375 -7.21875 C 11.359375 -5.5625 10.761719 -4.183594 9.617188 -3.097656 C 8.46875 -2.015625 7.070312 -1.484375 5.414062 -1.484375 L 3.078125 -1.484375 L 3.078125 -12.949219 L 5.414062 -12.949219 C 7.070312 -12.949219 8.46875 -12.398438 9.617188 -11.335938 C 10.761719 -10.234375 11.359375 -8.851562 11.359375 -7.21875 Z M 11.359375 -7.21875 "/></g></g></g><g fill="#ffffff" fill-opacity="1"><g transform="translate(255.113181, 176.894311)"><g/></g></g><g fill="#ffffff" fill-opacity="1"><g transform="translate(260.84485, 176.894311)"><g><path d="M 3.078125 0 L 3.078125 -14.4375 L 1.59375 -14.4375 L 1.59375 0 Z M 3.078125 0 "/></g></g></g><g fill="#ffffff" fill-opacity="1"><g transform="translate(265.51511, 176.894311)"><g><path d="M 0.425781 -13.097656 L 3.925781 -13.097656 L 3.925781 -0.0429688 L 5.414062 -0.0429688 L 5.414062 -13.097656 L 8.917969 -13.097656 L 8.917969 -14.480469 L 0.425781 -14.480469 Z M 0.425781 -13.097656 "/></g></g></g><g fill="#ffffff" fill-opacity="1"><g transform="translate(274.850646, 176.894311)"><g/></g></g><g fill="#ffffff" fill-opacity="1"><g transform="translate(195.01355, 196.362395)"><g><path d="M 14.839844 -4.414062 L 13.203125 -4.414062 C 12.695312 -3.480469 11.996094 -2.71875 11.101562 -2.164062 C 10.210938 -1.59375 9.214844 -1.316406 8.152344 -1.316406 C 6.558594 -1.316406 5.203125 -1.890625 4.074219 -3.078125 C 2.972656 -4.203125 2.441406 -5.582031 2.441406 -7.195312 C 2.441406 -8.808594 2.972656 -10.191406 4.074219 -11.335938 C 4.585938 -11.867188 5.203125 -12.292969 5.902344 -12.609375 C 6.582031 -12.929688 7.261719 -13.097656 7.941406 -13.097656 C 8.597656 -13.097656 9.171875 -13.015625 9.679688 -12.867188 C 11.230469 -12.398438 12.398438 -11.464844 13.183594 -10.042969 L 14.820312 -10.042969 C 14.265625 -11.402344 13.394531 -12.503906 12.1875 -13.355469 C 10.953125 -14.203125 9.617188 -14.628906 8.152344 -14.628906 C 6.136719 -14.628906 4.4375 -13.882812 3.035156 -12.417969 C 2.378906 -11.738281 1.867188 -10.933594 1.507812 -10.042969 C 1.125 -9.148438 0.957031 -8.195312 0.957031 -7.195312 C 0.957031 -5.160156 1.632812 -3.4375 3.035156 -1.996094 C 4.4375 -0.507812 6.136719 0.210938 8.152344 0.210938 C 9.617188 0.210938 10.953125 -0.210938 12.207031 -1.0625 C 13.417969 -1.910156 14.289062 -3.015625 14.839844 -4.414062 Z M 14.839844 -4.414062 "/></g></g></g><g fill="#ffffff" fill-opacity="1"><g transform="translate(210.489058, 196.362395)"><g><path d="M 14.308594 -7.261719 C 14.308594 -5.605469 13.714844 -4.203125 12.566406 -3.058594 C 11.402344 -1.890625 10 -1.316406 8.363281 -1.316406 C 6.730469 -1.316406 5.328125 -1.890625 4.183594 -3.058594 C 3.015625 -4.203125 2.441406 -5.605469 2.441406 -7.261719 C 2.441406 -8.875 3.015625 -10.273438 4.183594 -11.441406 C 5.328125 -12.589844 6.730469 -13.183594 8.363281 -13.183594 C 10 -13.183594 11.402344 -12.589844 12.566406 -11.441406 C 13.714844 -10.273438 14.308594 -8.875 14.308594 -7.261719 Z M 15.796875 -7.261719 C 15.796875 -8.28125 15.582031 -9.234375 15.199219 -10.148438 C 14.820312 -11.039062 14.289062 -11.824219 13.609375 -12.503906 C 12.929688 -13.164062 12.144531 -13.691406 11.25 -14.074219 C 10.339844 -14.457031 9.382812 -14.667969 8.363281 -14.667969 C 7.34375 -14.667969 6.367188 -14.457031 5.476562 -14.074219 C 4.585938 -13.691406 3.800781 -13.164062 3.121094 -12.503906 C 2.441406 -11.824219 1.910156 -11.039062 1.527344 -10.148438 C 1.144531 -9.234375 0.957031 -8.28125 0.957031 -7.261719 C 0.957031 -6.242188 1.144531 -5.265625 1.527344 -4.375 C 1.910156 -3.460938 2.441406 -2.675781 3.121094 -1.996094 C 3.800781 -1.316406 4.585938 -0.785156 5.476562 -0.402344 C 6.367188 -0.0195312 7.34375 0.167969 8.363281 0.167969 C 9.382812 0.167969 10.339844 -0.0195312 11.25 -0.402344 C 12.144531 -0.785156 12.929688 -1.316406 13.609375 -1.996094 C 14.289062 -2.675781 14.820312 -3.460938 15.199219 -4.375 C 15.582031 -5.265625 15.796875 -6.242188 15.796875 -7.261719 Z M 15.796875 -7.261719 "/></g></g></g><g fill="#ffffff" fill-opacity="1"><g transform="translate(227.238275, 196.362395)"><g><path d="M 12.039062 -4.777344 L 12.039062 -14.4375 L 10.550781 -14.4375 L 10.550781 -4.5625 C 10.550781 -3.96875 10.445312 -3.480469 10.234375 -3.078125 C 9.617188 -1.890625 8.429688 -1.296875 6.667969 -1.296875 C 5.519531 -1.296875 4.605469 -1.550781 3.925781 -2.058594 C 3.140625 -2.632812 2.761719 -3.460938 2.761719 -4.5625 L 2.761719 -14.4375 L 1.273438 -14.4375 L 1.273438 -4.777344 C 1.273438 -3.207031 1.785156 -1.972656 2.800781 -1.082031 C 3.757812 -0.234375 5.050781 0.191406 6.667969 0.191406 C 8.257812 0.191406 9.53125 -0.234375 10.507812 -1.082031 C 11.527344 -1.972656 12.039062 -3.207031 12.039062 -4.777344 Z M 12.039062 -4.777344 "/></g></g></g><g fill="#ffffff" fill-opacity="1"><g transform="translate(240.548488, 196.362395)"><g><path d="M 3.078125 -10.636719 L 11.1875 0.890625 L 11.1875 -14.4375 L 9.703125 -14.4375 L 9.703125 -3.820312 L 1.59375 -15.347656 L 1.59375 0 L 3.078125 0 Z M 3.078125 -10.636719 "/></g></g></g><g fill="#ffffff" fill-opacity="1"><g transform="translate(253.327987, 196.362395)"><g><path d="M 0.425781 -13.097656 L 3.925781 -13.097656 L 3.925781 -0.0429688 L 5.414062 -0.0429688 L 5.414062 -13.097656 L 8.917969 -13.097656 L 8.917969 -14.480469 L 0.425781 -14.480469 Z M 0.425781 -13.097656 "/></g></g></g><g fill="#ffffff" fill-opacity="1"><g transform="translate(262.668489, 196.362395)"><g><path d="M 5.582031 -6.792969 C 7.453125 -6.347656 8.726562 -5.859375 9.40625 -5.308594 C 9.871094 -4.925781 10.105469 -4.4375 10.105469 -3.84375 C 10.105469 -3.25 9.976562 -2.761719 9.722656 -2.421875 C 9.085938 -1.527344 7.941406 -1.082031 6.328125 -1.082031 C 4.074219 -1.082031 2.800781 -1.847656 2.527344 -3.375 L 0.785156 -3.375 C 1.296875 -0.933594 3.140625 0.277344 6.328125 0.277344 C 7.75 0.277344 8.9375 -0.0195312 9.894531 -0.65625 C 11.039062 -1.402344 11.632812 -2.503906 11.632812 -3.949219 C 11.632812 -5.136719 11.167969 -6.050781 10.234375 -6.6875 C 9.574219 -7.15625 8.511719 -7.578125 7.046875 -7.960938 C 5.5625 -8.34375 4.605469 -8.660156 4.160156 -8.894531 C 3.183594 -9.382812 2.695312 -10.0625 2.71875 -10.953125 C 2.71875 -11.421875 2.800781 -11.824219 3.015625 -12.121094 C 3.566406 -12.949219 4.542969 -13.375 5.945312 -13.375 C 7.917969 -13.375 9.042969 -12.738281 9.339844 -11.507812 L 10.953125 -11.507812 C 10.421875 -13.585938 8.746094 -14.648438 5.945312 -14.648438 C 4.671875 -14.648438 3.546875 -14.308594 2.609375 -13.628906 C 1.65625 -12.949219 1.167969 -11.953125 1.167969 -10.59375 C 1.167969 -8.746094 2.652344 -7.472656 5.582031 -6.792969 Z M 5.582031 -6.792969 "/></g></g></g><g clip-path="url(#a9672a2023)"><path fill="#ffffff" d="M 225.738281 96.941406 L 226.066406 96.941406 C 226.066406 84.292969 230.125 80.238281 242.769531 80.238281 L 242.769531 79.910156 C 230.125 79.910156 226.066406 75.847656 226.066406 63.199219 L 225.738281 63.199219 C 225.738281 75.847656 221.675781 79.910156 209.027344 79.910156 L 209.027344 80.238281 C 221.675781 80.238281 225.738281 84.292969 225.738281 96.941406 Z M 225.898438 67.230469 C 226.664062 75.742188 230.234375 79.304688 238.738281 80.070312 C 230.234375 80.839844 226.664062 84.402344 225.898438 92.910156 C 225.132812 84.402344 221.570312 80.839844 213.0625 80.070312 C 221.570312 79.304688 225.132812 75.742188 225.898438 67.230469 Z M 225.898438 67.230469 " fill-opacity="1" fill-rule="nonzero"/></g><g clip-path="url(#adf7c502ee)"><path fill="#8cb89f" d="M 72.121094 250.570312 L 72.449219 250.570312 C 72.449219 237.925781 76.503906 233.867188 89.152344 233.867188 L 89.152344 233.539062 C 76.503906 233.539062 72.449219 229.476562 72.449219 216.828125 L 72.121094 216.828125 C 72.121094 229.476562 68.058594 233.539062 55.410156 233.539062 L 55.410156 233.867188 C 68.058594 233.867188 72.121094 237.925781 72.121094 250.570312 Z M 72.28125 220.863281 C 73.046875 229.371094 76.613281 232.933594 85.121094 233.699219 C 76.613281 234.472656 73.046875 238.035156 72.28125 246.539062 C 71.515625 238.035156 67.953125 234.472656 59.441406 233.699219 C 67.953125 232.933594 71.515625 229.371094 72.28125 220.863281 Z M 72.28125 220.863281 " fill-opacity="1" fill-rule="nonzero"/></g><g clip-path="url(#2d59c4fb59)"><path fill="#ffffff" d="M 65.238281 121.683594 L 65.566406 121.683594 C 65.566406 109.035156 69.625 104.980469 82.273438 104.980469 L 82.273438 104.652344 C 69.625 104.652344 65.566406 100.589844 65.566406 87.941406 L 65.238281 87.941406 C 65.238281 100.589844 61.175781 104.652344 48.53125 104.652344 L 48.53125 104.980469 C 61.175781 104.980469 65.238281 109.035156 65.238281 121.683594 Z M 65.402344 91.972656 C 66.167969 100.484375 69.734375 104.046875 78.238281 104.8125 C 69.734375 105.582031 66.167969 109.144531 65.402344 117.652344 C 64.636719 109.144531 61.070312 105.582031 52.5625 104.8125 C 61.070312 104.046875 64.636719 100.484375 65.402344 91.972656 Z M 65.402344 91.972656 " fill-opacity="1" fill-rule="nonzero"/></g><g clip-path="url(#3a69318038)"><path fill="#ffffff" d="M 208.855469 240.570312 L 209.183594 240.570312 C 209.183594 227.921875 213.242188 223.863281 225.886719 223.863281 L 225.886719 223.535156 C 213.242188 223.535156 209.183594 219.472656 209.183594 206.828125 L 208.855469 206.828125 C 208.855469 219.472656 204.792969 223.535156 192.144531 223.535156 L 192.144531 223.863281 C 204.792969 223.863281 208.855469 227.921875 208.855469 240.570312 Z M 209.015625 210.859375 C 209.78125 219.367188 213.351562 222.933594 221.855469 223.699219 C 213.351562 224.46875 209.78125 228.03125 209.015625 236.535156 C 208.25 228.03125 204.6875 224.46875 196.179688 223.699219 C 204.6875 222.933594 208.25 219.367188 209.015625 210.859375 Z M 209.015625 210.859375 " fill-opacity="1" fill-rule="nonzero"/></g><g fill="#ffffff" fill-opacity="1"><g transform="translate(126.647776, 67.982043)"><g><path d="M 3.859375 -1.890625 C 2.753906 -1.890625 1.953125 -2.238281 1.453125 -2.9375 C 0.960938 -3.644531 0.753906 -4.597656 0.828125 -5.796875 C 0.898438 -6.523438 1.039062 -7.460938 1.25 -8.609375 C 1.425781 -9.585938 1.695312 -10.820312 2.0625 -12.3125 C 2.4375 -13.800781 2.941406 -15.601562 3.578125 -17.71875 C 3.773438 -17.84375 3.972656 -17.941406 4.171875 -18.015625 C 4.378906 -18.085938 4.566406 -18.144531 4.734375 -18.1875 C 4.910156 -18.226562 5.097656 -18.257812 5.296875 -18.28125 C 5.441406 -18.289062 5.597656 -18.296875 5.765625 -18.296875 C 5.898438 -18.296875 6.03125 -18.285156 6.15625 -18.265625 C 6.289062 -18.242188 6.398438 -18.195312 6.484375 -18.125 C 5.640625 -15.988281 4.984375 -14.160156 4.515625 -12.640625 C 4.054688 -11.117188 3.710938 -9.863281 3.484375 -8.875 C 3.203125 -7.738281 3.03125 -6.800781 2.96875 -6.0625 C 2.914062 -5.164062 3.050781 -4.523438 3.375 -4.140625 C 3.695312 -3.765625 4.175781 -3.578125 4.8125 -3.578125 C 5.3125 -3.578125 5.820312 -3.769531 6.34375 -4.15625 C 6.875 -4.539062 7.382812 -5.085938 7.875 -5.796875 C 8.363281 -6.515625 8.816406 -7.375 9.234375 -8.375 C 9.648438 -9.382812 10.007812 -10.519531 10.3125 -11.78125 C 10.4375 -12.476562 10.582031 -13.179688 10.75 -13.890625 C 10.875 -14.492188 11.019531 -15.140625 11.1875 -15.828125 C 11.351562 -16.523438 11.507812 -17.175781 11.65625 -17.78125 C 11.800781 -17.914062 11.957031 -18.019531 12.125 -18.09375 C 12.300781 -18.164062 12.460938 -18.226562 12.609375 -18.28125 C 12.785156 -18.34375 12.96875 -18.382812 13.15625 -18.40625 C 13.3125 -18.414062 13.472656 -18.414062 13.640625 -18.40625 C 13.773438 -18.382812 13.910156 -18.359375 14.046875 -18.328125 C 14.179688 -18.296875 14.289062 -18.238281 14.375 -18.15625 C 14.101562 -17.289062 13.863281 -16.503906 13.65625 -15.796875 C 13.445312 -15.097656 13.269531 -14.492188 13.125 -13.984375 C 12.945312 -13.398438 12.789062 -12.878906 12.65625 -12.421875 C 12.53125 -11.921875 12.375 -11.28125 12.1875 -10.5 C 12.007812 -9.8125 11.789062 -8.941406 11.53125 -7.890625 C 11.269531 -6.847656 10.953125 -5.5625 10.578125 -4.03125 C 10.472656 -3.632812 10.347656 -3.140625 10.203125 -2.546875 C 10.054688 -1.960938 9.863281 -1.347656 9.625 -0.703125 C 9.394531 -0.0664062 9.101562 0.5625 8.75 1.1875 C 8.394531 1.820312 7.957031 2.390625 7.4375 2.890625 C 6.925781 3.398438 6.316406 3.8125 5.609375 4.125 C 4.910156 4.4375 4.097656 4.59375 3.171875 4.59375 C 2.628906 4.570312 2.144531 4.488281 1.71875 4.34375 C 1.34375 4.207031 0.992188 4.015625 0.671875 3.765625 C 0.359375 3.515625 0.175781 3.148438 0.125 2.671875 C 0.207031 2.492188 0.296875 2.332031 0.390625 2.1875 C 0.492188 2.039062 0.59375 1.898438 0.6875 1.765625 C 0.800781 1.617188 0.914062 1.476562 1.03125 1.34375 C 1.144531 1.226562 1.269531 1.125 1.40625 1.03125 C 1.519531 0.945312 1.640625 0.875 1.765625 0.8125 C 1.898438 0.75 2.03125 0.71875 2.15625 0.71875 C 2.21875 0.863281 2.316406 1.03125 2.453125 1.21875 C 2.585938 1.414062 2.75 1.597656 2.9375 1.765625 C 3.132812 1.941406 3.351562 2.085938 3.59375 2.203125 C 3.84375 2.316406 4.117188 2.375 4.421875 2.375 C 4.804688 2.375 5.21875 2.25 5.65625 2 C 6.101562 1.75 6.539062 1.316406 6.96875 0.703125 C 7.40625 0.0859375 7.828125 -0.738281 8.234375 -1.78125 C 8.648438 -2.832031 9.035156 -4.148438 9.390625 -5.734375 C 9.179688 -5.359375 8.910156 -4.953125 8.578125 -4.515625 C 8.253906 -4.078125 7.867188 -3.660156 7.421875 -3.265625 C 6.972656 -2.867188 6.445312 -2.539062 5.84375 -2.28125 C 5.25 -2.019531 4.585938 -1.890625 3.859375 -1.890625 Z M 3.859375 -1.890625 "/></g></g></g><g fill="#ffffff" fill-opacity="1"><g transform="translate(140.018906, 67.982043)"><g><path d="M 7.265625 -3.90625 C 7.097656 -3.28125 6.875 -2.695312 6.59375 -2.15625 C 6.320312 -1.613281 5.992188 -1.144531 5.609375 -0.75 C 5.222656 -0.363281 4.785156 -0.0625 4.296875 0.15625 C 3.816406 0.375 3.289062 0.484375 2.71875 0.484375 C 2.050781 0.484375 1.523438 0.335938 1.140625 0.046875 C 0.753906 -0.234375 0.46875 -0.582031 0.28125 -1 C 0.09375 -1.425781 -0.0195312 -1.894531 -0.0625 -2.40625 C -0.101562 -2.914062 -0.125 -3.390625 -0.125 -3.828125 C -0.125 -4.140625 -0.0859375 -4.484375 -0.015625 -4.859375 C 0.0546875 -5.234375 0.15625 -5.613281 0.28125 -6 C 0.414062 -6.394531 0.585938 -6.789062 0.796875 -7.1875 C 1.003906 -7.582031 1.242188 -7.941406 1.515625 -8.265625 C 1.617188 -8.546875 1.769531 -8.789062 1.96875 -9 C 2.175781 -9.21875 2.414062 -9.394531 2.6875 -9.53125 C 2.957031 -9.664062 3.25 -9.769531 3.5625 -9.84375 C 3.875 -9.925781 4.175781 -9.96875 4.46875 -9.96875 C 4.519531 -9.96875 4.5625 -9.957031 4.59375 -9.9375 C 4.632812 -9.914062 4.679688 -9.898438 4.734375 -9.890625 C 4.941406 -9.867188 5.207031 -9.785156 5.53125 -9.640625 C 5.851562 -9.492188 6.164062 -9.269531 6.46875 -8.96875 C 6.769531 -8.675781 7.023438 -8.304688 7.234375 -7.859375 C 7.453125 -7.410156 7.5625 -6.867188 7.5625 -6.234375 C 7.5625 -6.097656 7.550781 -5.9375 7.53125 -5.75 C 7.519531 -5.5625 7.503906 -5.40625 7.484375 -5.28125 C 7.859375 -5.425781 8.25 -5.601562 8.65625 -5.8125 C 9.070312 -6.03125 9.46875 -6.253906 9.84375 -6.484375 C 10.226562 -6.722656 10.582031 -6.960938 10.90625 -7.203125 C 11.238281 -7.453125 11.503906 -7.675781 11.703125 -7.875 C 11.867188 -8.019531 12.007812 -8.097656 12.125 -8.109375 C 12.238281 -8.128906 12.316406 -8.097656 12.359375 -8.015625 C 12.410156 -7.941406 12.421875 -7.828125 12.390625 -7.671875 C 12.359375 -7.523438 12.269531 -7.363281 12.125 -7.1875 C 12.039062 -7.09375 11.832031 -6.894531 11.5 -6.59375 C 11.164062 -6.300781 10.769531 -5.984375 10.3125 -5.640625 C 9.851562 -5.296875 9.351562 -4.957031 8.8125 -4.625 C 8.269531 -4.300781 7.753906 -4.0625 7.265625 -3.90625 Z M 3.109375 -7.625 C 3.066406 -7.476562 3.046875 -7.328125 3.046875 -7.171875 C 3.046875 -6.898438 3.0625 -6.617188 3.09375 -6.328125 C 3.125 -6.046875 3.203125 -5.789062 3.328125 -5.5625 C 3.460938 -5.332031 3.671875 -5.140625 3.953125 -4.984375 C 4.242188 -4.835938 4.644531 -4.765625 5.15625 -4.765625 C 5.238281 -4.765625 5.316406 -4.765625 5.390625 -4.765625 C 5.472656 -4.773438 5.554688 -4.789062 5.640625 -4.8125 C 5.691406 -5.019531 5.738281 -5.207031 5.78125 -5.375 C 5.820312 -5.550781 5.84375 -5.707031 5.84375 -5.84375 C 5.875 -6.15625 5.875 -6.472656 5.84375 -6.796875 C 5.8125 -7.117188 5.75 -7.414062 5.65625 -7.6875 C 5.5625 -7.957031 5.445312 -8.175781 5.3125 -8.34375 C 5.175781 -8.519531 5.007812 -8.609375 4.8125 -8.609375 C 4.5 -8.609375 4.195312 -8.519531 3.90625 -8.34375 C 3.625 -8.175781 3.359375 -7.9375 3.109375 -7.625 Z M 1.546875 -3.3125 C 1.546875 -3.019531 1.5625 -2.726562 1.59375 -2.4375 C 1.625 -2.15625 1.6875 -1.898438 1.78125 -1.671875 C 1.882812 -1.453125 2.015625 -1.273438 2.171875 -1.140625 C 2.335938 -1.003906 2.554688 -0.9375 2.828125 -0.9375 C 3.117188 -0.9375 3.382812 -1.003906 3.625 -1.140625 C 3.875 -1.273438 4.097656 -1.453125 4.296875 -1.671875 C 4.492188 -1.898438 4.664062 -2.15625 4.8125 -2.4375 C 4.96875 -2.726562 5.101562 -3.03125 5.21875 -3.34375 C 5.101562 -3.320312 4.992188 -3.304688 4.890625 -3.296875 C 4.785156 -3.285156 4.671875 -3.28125 4.546875 -3.28125 C 3.921875 -3.28125 3.378906 -3.460938 2.921875 -3.828125 C 2.472656 -4.203125 2.128906 -4.675781 1.890625 -5.25 C 1.785156 -4.90625 1.703125 -4.566406 1.640625 -4.234375 C 1.578125 -3.910156 1.546875 -3.601562 1.546875 -3.3125 Z M 1.546875 -3.3125 "/></g></g></g><g fill="#ffffff" fill-opacity="1"><g transform="translate(149.906182, 67.982043)"><g><path d="M 3.046875 0.390625 C 2.421875 0.390625 1.910156 0.289062 1.515625 0.09375 C 1.128906 -0.101562 0.820312 -0.34375 0.59375 -0.625 C 0.375 -0.914062 0.21875 -1.226562 0.125 -1.5625 C 0.0390625 -1.894531 0 -2.203125 0 -2.484375 C 0 -2.972656 0.0390625 -3.488281 0.125 -4.03125 C 0.207031 -4.582031 0.304688 -5.085938 0.421875 -5.546875 C 0.535156 -6.015625 0.632812 -6.410156 0.71875 -6.734375 C 0.8125 -7.066406 0.875 -7.273438 0.90625 -7.359375 C 1.050781 -7.835938 1.242188 -8.25 1.484375 -8.59375 C 1.722656 -8.945312 2.054688 -9.191406 2.484375 -9.328125 C 2.640625 -9.359375 2.8125 -9.390625 3 -9.421875 C 3.144531 -9.441406 3.296875 -9.453125 3.453125 -9.453125 C 3.609375 -9.453125 3.75 -9.425781 3.875 -9.375 C 3.4375 -8.25 3.085938 -7.304688 2.828125 -6.546875 C 2.578125 -5.796875 2.382812 -5.1875 2.25 -4.71875 C 2.101562 -4.175781 2.015625 -3.738281 1.984375 -3.40625 C 1.898438 -2.675781 1.960938 -2.117188 2.171875 -1.734375 C 2.390625 -1.359375 2.828125 -1.171875 3.484375 -1.171875 C 3.910156 -1.171875 4.316406 -1.332031 4.703125 -1.65625 C 5.097656 -1.976562 5.460938 -2.390625 5.796875 -2.890625 C 5.742188 -3.148438 5.71875 -3.421875 5.71875 -3.703125 C 5.71875 -4.222656 5.757812 -4.734375 5.84375 -5.234375 C 5.9375 -5.734375 6.046875 -6.195312 6.171875 -6.625 C 6.296875 -7.0625 6.425781 -7.453125 6.5625 -7.796875 C 6.695312 -8.140625 6.816406 -8.410156 6.921875 -8.609375 C 7.097656 -9.003906 7.257812 -9.242188 7.40625 -9.328125 C 7.550781 -9.421875 7.789062 -9.476562 8.125 -9.5 C 8.25 -9.507812 8.359375 -9.507812 8.453125 -9.5 C 8.546875 -9.5 8.625 -9.488281 8.6875 -9.46875 C 8.882812 -9.414062 8.984375 -9.316406 8.984375 -9.171875 C 8.984375 -8.910156 8.960938 -8.519531 8.921875 -8 C 8.890625 -7.476562 8.796875 -6.9375 8.640625 -6.375 C 8.523438 -5.914062 8.410156 -5.523438 8.296875 -5.203125 C 8.191406 -4.890625 8.09375 -4.625 8 -4.40625 C 7.90625 -4.1875 7.804688 -4.003906 7.703125 -3.859375 C 7.609375 -3.722656 7.519531 -3.597656 7.4375 -3.484375 C 7.46875 -2.992188 7.503906 -2.597656 7.546875 -2.296875 C 7.597656 -2.003906 7.660156 -1.78125 7.734375 -1.625 C 7.816406 -1.476562 7.910156 -1.375 8.015625 -1.3125 C 8.117188 -1.257812 8.234375 -1.234375 8.359375 -1.234375 C 8.585938 -1.234375 8.859375 -1.34375 9.171875 -1.5625 C 9.484375 -1.78125 9.804688 -2.054688 10.140625 -2.390625 C 10.484375 -2.722656 10.820312 -3.085938 11.15625 -3.484375 C 11.488281 -3.890625 11.789062 -4.269531 12.0625 -4.625 C 12.34375 -4.988281 12.582031 -5.304688 12.78125 -5.578125 C 12.976562 -5.847656 13.101562 -6.015625 13.15625 -6.078125 C 13.269531 -6.234375 13.378906 -6.328125 13.484375 -6.359375 C 13.585938 -6.390625 13.671875 -6.375 13.734375 -6.3125 C 13.804688 -6.257812 13.84375 -6.171875 13.84375 -6.046875 C 13.851562 -5.921875 13.816406 -5.785156 13.734375 -5.640625 C 13.410156 -5.023438 13.003906 -4.367188 12.515625 -3.671875 C 12.035156 -2.972656 11.519531 -2.328125 10.96875 -1.734375 C 10.425781 -1.148438 9.875 -0.660156 9.3125 -0.265625 C 8.757812 0.117188 8.238281 0.3125 7.75 0.3125 C 7.3125 0.3125 6.960938 0.160156 6.703125 -0.140625 C 6.453125 -0.441406 6.238281 -0.878906 6.0625 -1.453125 C 5.6875 -0.859375 5.242188 -0.398438 4.734375 -0.078125 C 4.222656 0.234375 3.660156 0.390625 3.046875 0.390625 Z M 3.046875 0.390625 "/></g></g></g><g fill="#ffffff" fill-opacity="1"><g transform="translate(161.68259, 67.982043)"><g><path d="M -0.9375 -0.125 C -1.050781 0.0507812 -1.175781 0.164062 -1.3125 0.21875 C -1.445312 0.28125 -1.566406 0.289062 -1.671875 0.25 C -1.785156 0.21875 -1.859375 0.132812 -1.890625 0 C -1.921875 -0.132812 -1.890625 -0.296875 -1.796875 -0.484375 C -1.742188 -0.585938 -1.628906 -0.8125 -1.453125 -1.15625 C -1.285156 -1.5 -1.082031 -1.910156 -0.84375 -2.390625 C -0.601562 -2.867188 -0.34375 -3.390625 -0.0625 -3.953125 C 0.207031 -4.523438 0.46875 -5.0625 0.71875 -5.5625 C 0.976562 -6.070312 1.210938 -6.523438 1.421875 -6.921875 C 1.628906 -7.328125 1.785156 -7.617188 1.890625 -7.796875 C 1.710938 -7.960938 1.585938 -8.082031 1.515625 -8.15625 C 1.453125 -8.226562 1.40625 -8.390625 1.375 -8.640625 C 1.34375 -8.847656 1.390625 -9.125 1.515625 -9.46875 C 1.648438 -9.8125 1.820312 -10.140625 2.03125 -10.453125 C 2.25 -10.773438 2.488281 -11.050781 2.75 -11.28125 C 3.007812 -11.507812 3.265625 -11.625 3.515625 -11.625 C 3.972656 -11.625 4.296875 -11.476562 4.484375 -11.1875 C 4.671875 -10.894531 4.78125 -10.59375 4.8125 -10.28125 C 4.84375 -10.070312 4.820312 -9.800781 4.75 -9.46875 C 4.6875 -9.144531 4.566406 -8.851562 4.390625 -8.59375 C 4.441406 -8.550781 4.507812 -8.507812 4.59375 -8.46875 C 4.675781 -8.4375 4.804688 -8.421875 4.984375 -8.421875 C 5.242188 -8.421875 5.425781 -8.4375 5.53125 -8.46875 C 5.632812 -8.5 5.800781 -8.515625 6.03125 -8.515625 C 6.3125 -8.515625 6.539062 -8.441406 6.71875 -8.296875 C 6.90625 -8.160156 7.054688 -7.988281 7.171875 -7.78125 C 7.285156 -7.582031 7.367188 -7.363281 7.421875 -7.125 C 7.484375 -6.882812 7.519531 -6.671875 7.53125 -6.484375 C 7.582031 -6.066406 7.476562 -5.640625 7.21875 -5.203125 C 6.957031 -4.765625 6.632812 -4.28125 6.25 -3.75 C 6.019531 -3.425781 5.789062 -3.054688 5.5625 -2.640625 C 5.332031 -2.234375 5.238281 -1.867188 5.28125 -1.546875 C 5.3125 -1.335938 5.363281 -1.164062 5.4375 -1.03125 C 5.519531 -0.894531 5.753906 -0.828125 6.140625 -0.828125 C 6.410156 -0.828125 6.710938 -0.929688 7.046875 -1.140625 C 7.390625 -1.347656 7.734375 -1.609375 8.078125 -1.921875 C 8.429688 -2.242188 8.78125 -2.597656 9.125 -2.984375 C 9.46875 -3.367188 9.785156 -3.742188 10.078125 -4.109375 C 10.378906 -4.472656 10.628906 -4.800781 10.828125 -5.09375 C 11.035156 -5.394531 11.1875 -5.609375 11.28125 -5.734375 C 11.363281 -5.867188 11.46875 -5.957031 11.59375 -6 C 11.726562 -6.050781 11.84375 -6.050781 11.9375 -6 C 12.039062 -5.957031 12.101562 -5.863281 12.125 -5.71875 C 12.15625 -5.570312 12.097656 -5.375 11.953125 -5.125 C 11.847656 -4.957031 11.675781 -4.691406 11.4375 -4.328125 C 11.207031 -3.972656 10.921875 -3.578125 10.578125 -3.140625 C 10.242188 -2.703125 9.875 -2.25 9.46875 -1.78125 C 9.0625 -1.3125 8.632812 -0.882812 8.1875 -0.5 C 7.738281 -0.113281 7.285156 0.195312 6.828125 0.4375 C 6.378906 0.6875 5.953125 0.8125 5.546875 0.8125 C 5.117188 0.8125 4.765625 0.726562 4.484375 0.5625 C 4.210938 0.394531 3.988281 0.195312 3.8125 -0.03125 C 3.644531 -0.269531 3.523438 -0.53125 3.453125 -0.8125 C 3.378906 -1.101562 3.347656 -1.375 3.359375 -1.625 C 3.378906 -1.8125 3.429688 -2.015625 3.515625 -2.234375 C 3.609375 -2.460938 3.71875 -2.691406 3.84375 -2.921875 C 3.96875 -3.160156 4.097656 -3.398438 4.234375 -3.640625 C 4.367188 -3.878906 4.492188 -4.113281 4.609375 -4.34375 C 4.890625 -4.8125 5.113281 -5.210938 5.28125 -5.546875 C 5.457031 -5.890625 5.546875 -6.175781 5.546875 -6.40625 C 5.546875 -6.550781 5.507812 -6.679688 5.4375 -6.796875 C 5.375 -6.910156 5.269531 -6.96875 5.125 -6.96875 C 5.03125 -6.96875 4.960938 -6.960938 4.921875 -6.953125 C 4.878906 -6.941406 4.835938 -6.9375 4.796875 -6.9375 C 4.753906 -6.9375 4.695312 -6.929688 4.625 -6.921875 C 4.550781 -6.921875 4.441406 -6.921875 4.296875 -6.921875 C 4.078125 -6.921875 3.894531 -6.953125 3.75 -7.015625 C 3.601562 -7.078125 3.46875 -7.128906 3.34375 -7.171875 C 3.269531 -7.054688 3.117188 -6.804688 2.890625 -6.421875 C 2.660156 -6.046875 2.394531 -5.601562 2.09375 -5.09375 C 1.789062 -4.59375 1.472656 -4.0625 1.140625 -3.5 C 0.804688 -2.945312 0.488281 -2.429688 0.1875 -1.953125 C -0.101562 -1.472656 -0.347656 -1.0625 -0.546875 -0.71875 C -0.753906 -0.382812 -0.882812 -0.1875 -0.9375 -0.125 Z M -0.9375 -0.125 "/></g></g></g><g fill="#ffffff" fill-opacity="1"><g transform="translate(171.887135, 67.982043)"><g/></g></g><g fill="#ffffff" fill-opacity="1"><g transform="translate(96.657752, 93.513956)"><g><path d="M 10.625 -18.46875 C 11.195312 -18.46875 11.664062 -18.304688 12.03125 -17.984375 C 12.40625 -17.671875 12.566406 -17.097656 12.515625 -16.265625 C 12.492188 -15.984375 12.425781 -15.460938 12.3125 -14.703125 C 12.195312 -13.941406 12.054688 -13.046875 11.890625 -12.015625 C 11.734375 -10.992188 11.550781 -9.890625 11.34375 -8.703125 C 11.144531 -7.515625 10.953125 -6.351562 10.765625 -5.21875 L 11.28125 -5.21875 C 11.445312 -5.21875 11.628906 -5.226562 11.828125 -5.25 C 12.023438 -5.269531 12.226562 -5.296875 12.4375 -5.328125 C 12.351562 -5.128906 12.257812 -4.941406 12.15625 -4.765625 C 12.0625 -4.597656 11.96875 -4.445312 11.875 -4.3125 C 11.757812 -4.164062 11.644531 -4.035156 11.53125 -3.921875 C 11.382812 -3.742188 11.210938 -3.582031 11.015625 -3.4375 C 10.816406 -3.300781 10.628906 -3.191406 10.453125 -3.109375 C 10.335938 -2.304688 10.242188 -1.59375 10.171875 -0.96875 C 10.097656 -0.34375 10.050781 0.175781 10.03125 0.59375 C 10 1.207031 10.015625 1.785156 10.078125 2.328125 C 10.128906 2.804688 10.226562 3.289062 10.375 3.78125 C 10.519531 4.269531 10.757812 4.660156 11.09375 4.953125 L 8.25 5.890625 C 8.050781 5.609375 7.90625 5.234375 7.8125 4.765625 C 7.726562 4.304688 7.664062 3.847656 7.625 3.390625 C 7.582031 2.847656 7.578125 2.289062 7.609375 1.71875 C 7.640625 1.144531 7.726562 0.398438 7.875 -0.515625 C 8.019531 -1.441406 8.179688 -2.457031 8.359375 -3.5625 C 8.035156 -3.65625 7.679688 -3.734375 7.296875 -3.796875 C 6.910156 -3.867188 6.484375 -3.90625 6.015625 -3.90625 C 5.585938 -3.90625 5.140625 -3.882812 4.671875 -3.84375 C 4.203125 -3.8125 3.738281 -3.773438 3.28125 -3.734375 C 3.09375 -3.015625 2.898438 -2.253906 2.703125 -1.453125 C 2.484375 -0.578125 2.285156 0.160156 2.109375 0.765625 C 1.941406 1.378906 1.78125 1.890625 1.625 2.296875 C 1.476562 2.710938 1.328125 3.039062 1.171875 3.28125 C 1.015625 3.53125 0.84375 3.710938 0.65625 3.828125 C 0.46875 3.921875 0.222656 4.007812 -0.078125 4.09375 C -0.347656 4.175781 -0.695312 4.257812 -1.125 4.34375 C -1.550781 4.425781 -2.097656 4.492188 -2.765625 4.546875 C -2.523438 4.242188 -2.3125 3.96875 -2.125 3.71875 C -1.945312 3.476562 -1.769531 3.175781 -1.59375 2.8125 C -1.414062 2.457031 -1.210938 2 -0.984375 1.4375 C -0.765625 0.875 -0.484375 0.132812 -0.140625 -0.78125 C 0.00390625 -1.15625 0.15625 -1.566406 0.3125 -2.015625 C 0.46875 -2.472656 0.632812 -2.9375 0.8125 -3.40625 C 0.21875 -3.320312 -0.28125 -3.25 -0.6875 -3.1875 C -1.09375 -3.125 -1.335938 -3.078125 -1.421875 -3.046875 C -1.554688 -3.023438 -1.660156 -3.023438 -1.734375 -3.046875 C -1.953125 -3.078125 -2.066406 -3.179688 -2.078125 -3.359375 C -2.066406 -3.585938 -1.988281 -3.742188 -1.84375 -3.828125 C -1.707031 -3.910156 -1.503906 -4.007812 -1.234375 -4.125 C -1.097656 -4.1875 -0.796875 -4.300781 -0.328125 -4.46875 C 0.140625 -4.644531 0.707031 -4.832031 1.375 -5.03125 C 1.613281 -5.71875 1.851562 -6.398438 2.09375 -7.078125 C 2.332031 -7.753906 2.566406 -8.40625 2.796875 -9.03125 C 3.023438 -9.65625 3.242188 -10.238281 3.453125 -10.78125 C 3.671875 -11.332031 3.867188 -11.800781 4.046875 -12.1875 C 4.328125 -12.800781 4.679688 -13.46875 5.109375 -14.1875 C 5.546875 -14.914062 6.046875 -15.597656 6.609375 -16.234375 C 7.171875 -16.878906 7.789062 -17.410156 8.46875 -17.828125 C 9.15625 -18.253906 9.875 -18.46875 10.625 -18.46875 Z M 10.359375 -13.375 C 10.535156 -14.101562 10.65625 -14.707031 10.71875 -15.1875 C 10.789062 -15.664062 10.816406 -16.035156 10.796875 -16.296875 C 10.773438 -16.566406 10.71875 -16.753906 10.625 -16.859375 C 10.539062 -16.972656 10.4375 -17.03125 10.3125 -17.03125 C 10.09375 -17.03125 9.828125 -16.945312 9.515625 -16.78125 C 9.203125 -16.613281 8.875 -16.378906 8.53125 -16.078125 C 8.1875 -15.773438 7.847656 -15.398438 7.515625 -14.953125 C 7.179688 -14.503906 6.882812 -13.992188 6.625 -13.421875 C 6.25 -12.566406 5.820312 -11.519531 5.34375 -10.28125 C 4.875 -9.050781 4.359375 -7.476562 3.796875 -5.5625 C 4.128906 -5.613281 4.453125 -5.65625 4.765625 -5.6875 C 5.085938 -5.71875 5.40625 -5.734375 5.71875 -5.734375 C 6.269531 -5.734375 6.800781 -5.710938 7.3125 -5.671875 C 7.820312 -5.640625 8.285156 -5.597656 8.703125 -5.546875 C 8.859375 -6.328125 9.007812 -7.097656 9.15625 -7.859375 C 9.3125 -8.617188 9.460938 -9.34375 9.609375 -10.03125 C 9.765625 -10.71875 9.898438 -11.347656 10.015625 -11.921875 C 10.140625 -12.492188 10.253906 -12.976562 10.359375 -13.375 Z M 10.359375 -13.375 "/></g></g></g><g fill="#ffffff" fill-opacity="1"><g transform="translate(110.544099, 93.513956)"><g><path d="M 0.484375 -2.546875 C 0.304688 -2.734375 0.179688 -2.910156 0.109375 -3.078125 C 0.0351562 -3.253906 -0.015625 -3.421875 -0.046875 -3.578125 C -0.078125 -3.765625 -0.078125 -3.945312 -0.046875 -4.125 C 0.015625 -4.351562 0.113281 -4.566406 0.25 -4.765625 C 0.363281 -4.941406 0.515625 -5.125 0.703125 -5.3125 C 0.898438 -5.5 1.164062 -5.675781 1.5 -5.84375 C 1.707031 -6.363281 1.894531 -6.910156 2.0625 -7.484375 C 2.238281 -8.066406 2.394531 -8.597656 2.53125 -9.078125 C 2.675781 -9.628906 2.804688 -10.1875 2.921875 -10.75 C 3.328125 -12.132812 3.535156 -13.265625 3.546875 -14.140625 C 3.566406 -15.015625 3.554688 -15.59375 3.515625 -15.875 C 3.492188 -15.988281 3.472656 -16.101562 3.453125 -16.21875 C 3.421875 -16.3125 3.394531 -16.421875 3.375 -16.546875 C 3.351562 -16.671875 3.320312 -16.789062 3.28125 -16.90625 C 3.46875 -17 3.628906 -17.078125 3.765625 -17.140625 C 3.898438 -17.210938 4.019531 -17.265625 4.125 -17.296875 C 4.238281 -17.347656 4.34375 -17.378906 4.4375 -17.390625 C 4.8125 -17.472656 5.164062 -17.519531 5.5 -17.53125 C 5.84375 -17.539062 6.03125 -17.476562 6.0625 -17.34375 C 6.070312 -17.257812 6.085938 -17.113281 6.109375 -16.90625 C 6.140625 -16.695312 6.15625 -16.4375 6.15625 -16.125 C 6.15625 -15.8125 6.128906 -15.460938 6.078125 -15.078125 C 6.035156 -14.691406 5.945312 -14.285156 5.8125 -13.859375 C 5.695312 -13.484375 5.539062 -12.960938 5.34375 -12.296875 C 5.164062 -11.722656 4.929688 -10.957031 4.640625 -10 C 4.347656 -9.039062 3.960938 -7.816406 3.484375 -6.328125 C 3.972656 -6.492188 4.507812 -6.648438 5.09375 -6.796875 C 5.6875 -6.941406 6.289062 -7.0625 6.90625 -7.15625 C 7.519531 -7.257812 8.132812 -7.332031 8.75 -7.375 C 9.363281 -7.425781 9.929688 -7.4375 10.453125 -7.40625 C 10.546875 -7.40625 10.613281 -7.359375 10.65625 -7.265625 C 10.695312 -7.179688 10.695312 -7.085938 10.65625 -6.984375 C 10.613281 -6.890625 10.523438 -6.796875 10.390625 -6.703125 C 10.253906 -6.617188 10.054688 -6.566406 9.796875 -6.546875 C 9.460938 -6.515625 9.097656 -6.476562 8.703125 -6.4375 C 8.316406 -6.394531 7.914062 -6.335938 7.5 -6.265625 C 7.082031 -6.191406 6.664062 -6.101562 6.25 -6 C 5.84375 -5.894531 5.460938 -5.769531 5.109375 -5.625 C 4.828125 -5.519531 4.546875 -5.421875 4.265625 -5.328125 C 4.035156 -5.242188 3.796875 -5.144531 3.546875 -5.03125 C 3.296875 -4.925781 3.085938 -4.835938 2.921875 -4.765625 L 2.359375 -2.96875 C 3.304688 -2.300781 4.035156 -1.613281 4.546875 -0.90625 C 5.066406 -0.207031 5.441406 0.4375 5.671875 1.03125 C 5.941406 1.71875 6.097656 2.390625 6.140625 3.046875 C 6.140625 3.765625 6.03125 4.488281 5.8125 5.21875 C 5.601562 5.945312 5.320312 6.640625 4.96875 7.296875 C 4.613281 7.960938 4.203125 8.582031 3.734375 9.15625 C 3.273438 9.726562 2.785156 10.21875 2.265625 10.625 C 1.753906 11.03125 1.234375 11.335938 0.703125 11.546875 C 0.171875 11.765625 -0.332031 11.847656 -0.8125 11.796875 C -1.15625 11.765625 -1.441406 11.65625 -1.671875 11.46875 C -1.898438 11.28125 -2.070312 11.039062 -2.1875 10.75 C -2.300781 10.46875 -2.363281 10.148438 -2.375 9.796875 C -2.394531 9.453125 -2.363281 9.109375 -2.28125 8.765625 C -2.21875 8.421875 -2.078125 7.78125 -1.859375 6.84375 C -1.679688 6.0625 -1.40625 4.921875 -1.03125 3.421875 C -0.65625 1.921875 -0.148438 -0.0664062 0.484375 -2.546875 Z M 1.9375 -1.40625 C 1.707031 -0.582031 1.503906 0.171875 1.328125 0.859375 C 1.160156 1.546875 1.019531 2.148438 0.90625 2.671875 C 0.757812 3.273438 0.644531 3.820312 0.5625 4.3125 C 0.414062 4.9375 0.265625 5.550781 0.109375 6.15625 C -0.046875 6.757812 -0.164062 7.300781 -0.25 7.78125 C -0.34375 8.269531 -0.378906 8.660156 -0.359375 8.953125 C -0.347656 9.242188 -0.242188 9.390625 -0.046875 9.390625 C 0.421875 9.429688 0.910156 9.25 1.421875 8.84375 C 1.941406 8.445312 2.414062 7.941406 2.84375 7.328125 C 3.269531 6.710938 3.617188 6.046875 3.890625 5.328125 C 4.171875 4.617188 4.3125 3.960938 4.3125 3.359375 C 4.3125 2.691406 4.207031 2.03125 4 1.375 C 3.851562 1.03125 3.679688 0.695312 3.484375 0.375 C 3.304688 0.09375 3.085938 -0.203125 2.828125 -0.515625 C 2.578125 -0.835938 2.28125 -1.132812 1.9375 -1.40625 Z M 1.9375 -1.40625 "/></g></g></g><g fill="#ffffff" fill-opacity="1"><g transform="translate(118.713982, 93.513956)"><g><path d="M 0.484375 -2.546875 C 0.304688 -2.734375 0.179688 -2.910156 0.109375 -3.078125 C 0.0351562 -3.253906 -0.015625 -3.421875 -0.046875 -3.578125 C -0.078125 -3.765625 -0.078125 -3.945312 -0.046875 -4.125 C 0.015625 -4.351562 0.113281 -4.566406 0.25 -4.765625 C 0.363281 -4.941406 0.515625 -5.125 0.703125 -5.3125 C 0.898438 -5.5 1.164062 -5.675781 1.5 -5.84375 C 1.707031 -6.363281 1.894531 -6.910156 2.0625 -7.484375 C 2.238281 -8.066406 2.394531 -8.597656 2.53125 -9.078125 C 2.675781 -9.628906 2.804688 -10.1875 2.921875 -10.75 C 3.328125 -12.132812 3.535156 -13.265625 3.546875 -14.140625 C 3.566406 -15.015625 3.554688 -15.59375 3.515625 -15.875 C 3.492188 -15.988281 3.472656 -16.101562 3.453125 -16.21875 C 3.421875 -16.3125 3.394531 -16.421875 3.375 -16.546875 C 3.351562 -16.671875 3.320312 -16.789062 3.28125 -16.90625 C 3.46875 -17 3.628906 -17.078125 3.765625 -17.140625 C 3.898438 -17.210938 4.019531 -17.265625 4.125 -17.296875 C 4.238281 -17.347656 4.34375 -17.378906 4.4375 -17.390625 C 4.8125 -17.472656 5.164062 -17.519531 5.5 -17.53125 C 5.84375 -17.539062 6.03125 -17.476562 6.0625 -17.34375 C 6.070312 -17.257812 6.085938 -17.113281 6.109375 -16.90625 C 6.140625 -16.695312 6.15625 -16.4375 6.15625 -16.125 C 6.15625 -15.8125 6.128906 -15.460938 6.078125 -15.078125 C 6.035156 -14.691406 5.945312 -14.285156 5.8125 -13.859375 C 5.695312 -13.484375 5.539062 -12.960938 5.34375 -12.296875 C 5.164062 -11.722656 4.929688 -10.957031 4.640625 -10 C 4.347656 -9.039062 3.960938 -7.816406 3.484375 -6.328125 C 3.972656 -6.492188 4.507812 -6.648438 5.09375 -6.796875 C 5.6875 -6.941406 6.289062 -7.0625 6.90625 -7.15625 C 7.519531 -7.257812 8.132812 -7.332031 8.75 -7.375 C 9.363281 -7.425781 9.929688 -7.4375 10.453125 -7.40625 C 10.546875 -7.40625 10.613281 -7.359375 10.65625 -7.265625 C 10.695312 -7.179688 10.695312 -7.085938 10.65625 -6.984375 C 10.613281 -6.890625 10.523438 -6.796875 10.390625 -6.703125 C 10.253906 -6.617188 10.054688 -6.566406 9.796875 -6.546875 C 9.460938 -6.515625 9.097656 -6.476562 8.703125 -6.4375 C 8.316406 -6.394531 7.914062 -6.335938 7.5 -6.265625 C 7.082031 -6.191406 6.664062 -6.101562 6.25 -6 C 5.84375 -5.894531 5.460938 -5.769531 5.109375 -5.625 C 4.828125 -5.519531 4.546875 -5.421875 4.265625 -5.328125 C 4.035156 -5.242188 3.796875 -5.144531 3.546875 -5.03125 C 3.296875 -4.925781 3.085938 -4.835938 2.921875 -4.765625 L 2.359375 -2.96875 C 3.304688 -2.300781 4.035156 -1.613281 4.546875 -0.90625 C 5.066406 -0.207031 5.441406 0.4375 5.671875 1.03125 C 5.941406 1.71875 6.097656 2.390625 6.140625 3.046875 C 6.140625 3.765625 6.03125 4.488281 5.8125 5.21875 C 5.601562 5.945312 5.320312 6.640625 4.96875 7.296875 C 4.613281 7.960938 4.203125 8.582031 3.734375 9.15625 C 3.273438 9.726562 2.785156 10.21875 2.265625 10.625 C 1.753906 11.03125 1.234375 11.335938 0.703125 11.546875 C 0.171875 11.765625 -0.332031 11.847656 -0.8125 11.796875 C -1.15625 11.765625 -1.441406 11.65625 -1.671875 11.46875 C -1.898438 11.28125 -2.070312 11.039062 -2.1875 10.75 C -2.300781 10.46875 -2.363281 10.148438 -2.375 9.796875 C -2.394531 9.453125 -2.363281 9.109375 -2.28125 8.765625 C -2.21875 8.421875 -2.078125 7.78125 -1.859375 6.84375 C -1.679688 6.0625 -1.40625 4.921875 -1.03125 3.421875 C -0.65625 1.921875 -0.148438 -0.0664062 0.484375 -2.546875 Z M 1.9375 -1.40625 C 1.707031 -0.582031 1.503906 0.171875 1.328125 0.859375 C 1.160156 1.546875 1.019531 2.148438 0.90625 2.671875 C 0.757812 3.273438 0.644531 3.820312 0.5625 4.3125 C 0.414062 4.9375 0.265625 5.550781 0.109375 6.15625 C -0.046875 6.757812 -0.164062 7.300781 -0.25 7.78125 C -0.34375 8.269531 -0.378906 8.660156 -0.359375 8.953125 C -0.347656 9.242188 -0.242188 9.390625 -0.046875 9.390625 C 0.421875 9.429688 0.910156 9.25 1.421875 8.84375 C 1.941406 8.445312 2.414062 7.941406 2.84375 7.328125 C 3.269531 6.710938 3.617188 6.046875 3.890625 5.328125 C 4.171875 4.617188 4.3125 3.960938 4.3125 3.359375 C 4.3125 2.691406 4.207031 2.03125 4 1.375 C 3.851562 1.03125 3.679688 0.695312 3.484375 0.375 C 3.304688 0.09375 3.085938 -0.203125 2.828125 -0.515625 C 2.578125 -0.835938 2.28125 -1.132812 1.9375 -1.40625 Z M 1.9375 -1.40625 "/></g></g></g><g fill="#ffffff" fill-opacity="1"><g transform="translate(126.883866, 93.513956)"><g><path d="M 5.390625 -14.453125 C 5.347656 -14.273438 5.253906 -14.097656 5.109375 -13.921875 C 4.972656 -13.753906 4.816406 -13.613281 4.640625 -13.5 C 4.472656 -13.394531 4.300781 -13.328125 4.125 -13.296875 C 3.945312 -13.265625 3.800781 -13.296875 3.6875 -13.390625 C 3.34375 -13.660156 3.160156 -13.945312 3.140625 -14.25 C 3.117188 -14.550781 3.191406 -14.832031 3.359375 -15.09375 C 3.523438 -15.363281 3.726562 -15.59375 3.96875 -15.78125 C 4.21875 -15.976562 4.429688 -16.09375 4.609375 -16.125 C 4.785156 -16.15625 4.9375 -16.113281 5.0625 -16 C 5.1875 -15.894531 5.28125 -15.753906 5.34375 -15.578125 C 5.414062 -15.410156 5.453125 -15.222656 5.453125 -15.015625 C 5.460938 -14.804688 5.441406 -14.617188 5.390625 -14.453125 Z M 2.015625 -9.21875 C 2.097656 -9.320312 2.253906 -9.40625 2.484375 -9.46875 C 2.710938 -9.53125 2.945312 -9.582031 3.1875 -9.625 C 3.4375 -9.664062 3.660156 -9.691406 3.859375 -9.703125 C 4.066406 -9.710938 4.1875 -9.707031 4.21875 -9.6875 C 4.238281 -9.675781 4.195312 -9.503906 4.09375 -9.171875 C 4 -8.847656 3.878906 -8.460938 3.734375 -8.015625 C 3.585938 -7.578125 3.429688 -7.125 3.265625 -6.65625 C 3.097656 -6.195312 2.972656 -5.816406 2.890625 -5.515625 C 2.804688 -5.222656 2.707031 -4.890625 2.59375 -4.515625 C 2.476562 -4.148438 2.375 -3.789062 2.28125 -3.4375 C 2.195312 -3.09375 2.140625 -2.765625 2.109375 -2.453125 C 2.078125 -2.140625 2.101562 -1.898438 2.1875 -1.734375 C 2.269531 -1.546875 2.359375 -1.414062 2.453125 -1.34375 C 2.546875 -1.269531 2.648438 -1.234375 2.765625 -1.234375 C 3.097656 -1.234375 3.515625 -1.410156 4.015625 -1.765625 C 4.515625 -2.128906 5.019531 -2.554688 5.53125 -3.046875 C 6.050781 -3.546875 6.53125 -4.050781 6.96875 -4.5625 C 7.40625 -5.082031 7.734375 -5.5 7.953125 -5.8125 C 8.078125 -5.976562 8.207031 -6.082031 8.34375 -6.125 C 8.488281 -6.175781 8.601562 -6.171875 8.6875 -6.109375 C 8.78125 -6.046875 8.832031 -5.9375 8.84375 -5.78125 C 8.851562 -5.632812 8.800781 -5.46875 8.6875 -5.28125 C 8.425781 -4.820312 8.039062 -4.273438 7.53125 -3.640625 C 7.019531 -3.015625 6.476562 -2.410156 5.90625 -1.828125 C 5.332031 -1.242188 4.769531 -0.75 4.21875 -0.34375 C 3.675781 0.0625 3.234375 0.273438 2.890625 0.296875 C 2.617188 0.304688 2.347656 0.257812 2.078125 0.15625 C 1.804688 0.0507812 1.554688 -0.09375 1.328125 -0.28125 C 1.109375 -0.46875 0.925781 -0.6875 0.78125 -0.9375 C 0.632812 -1.195312 0.554688 -1.460938 0.546875 -1.734375 C 0.492188 -2.148438 0.488281 -2.710938 0.53125 -3.421875 C 0.582031 -4.128906 0.671875 -4.851562 0.796875 -5.59375 C 0.929688 -6.34375 1.101562 -7.050781 1.3125 -7.71875 C 1.519531 -8.394531 1.753906 -8.894531 2.015625 -9.21875 Z M 2.015625 -9.21875 "/></g></g></g><g fill="#ffffff" fill-opacity="1"><g transform="translate(133.777971, 93.513956)"><g><path d="M -0.9375 -0.125 C -1.050781 0.0507812 -1.175781 0.164062 -1.3125 0.21875 C -1.445312 0.28125 -1.566406 0.289062 -1.671875 0.25 C -1.785156 0.21875 -1.859375 0.132812 -1.890625 0 C -1.921875 -0.132812 -1.890625 -0.296875 -1.796875 -0.484375 C -1.742188 -0.585938 -1.628906 -0.8125 -1.453125 -1.15625 C -1.285156 -1.5 -1.082031 -1.910156 -0.84375 -2.390625 C -0.601562 -2.867188 -0.34375 -3.390625 -0.0625 -3.953125 C 0.207031 -4.523438 0.46875 -5.0625 0.71875 -5.5625 C 0.976562 -6.070312 1.210938 -6.523438 1.421875 -6.921875 C 1.628906 -7.328125 1.785156 -7.617188 1.890625 -7.796875 C 1.710938 -7.960938 1.585938 -8.082031 1.515625 -8.15625 C 1.453125 -8.226562 1.40625 -8.390625 1.375 -8.640625 C 1.34375 -8.847656 1.390625 -9.125 1.515625 -9.46875 C 1.648438 -9.8125 1.820312 -10.140625 2.03125 -10.453125 C 2.25 -10.773438 2.488281 -11.050781 2.75 -11.28125 C 3.007812 -11.507812 3.265625 -11.625 3.515625 -11.625 C 3.972656 -11.625 4.296875 -11.476562 4.484375 -11.1875 C 4.671875 -10.894531 4.78125 -10.59375 4.8125 -10.28125 C 4.84375 -10.070312 4.820312 -9.800781 4.75 -9.46875 C 4.6875 -9.144531 4.566406 -8.851562 4.390625 -8.59375 C 4.441406 -8.550781 4.507812 -8.507812 4.59375 -8.46875 C 4.675781 -8.4375 4.804688 -8.421875 4.984375 -8.421875 C 5.242188 -8.421875 5.425781 -8.4375 5.53125 -8.46875 C 5.632812 -8.5 5.800781 -8.515625 6.03125 -8.515625 C 6.3125 -8.515625 6.539062 -8.441406 6.71875 -8.296875 C 6.90625 -8.160156 7.054688 -7.988281 7.171875 -7.78125 C 7.285156 -7.582031 7.367188 -7.363281 7.421875 -7.125 C 7.484375 -6.882812 7.519531 -6.671875 7.53125 -6.484375 C 7.582031 -6.066406 7.476562 -5.640625 7.21875 -5.203125 C 6.957031 -4.765625 6.632812 -4.28125 6.25 -3.75 C 6.019531 -3.425781 5.789062 -3.054688 5.5625 -2.640625 C 5.332031 -2.234375 5.238281 -1.867188 5.28125 -1.546875 C 5.3125 -1.335938 5.363281 -1.164062 5.4375 -1.03125 C 5.519531 -0.894531 5.753906 -0.828125 6.140625 -0.828125 C 6.410156 -0.828125 6.710938 -0.929688 7.046875 -1.140625 C 7.390625 -1.347656 7.734375 -1.609375 8.078125 -1.921875 C 8.429688 -2.242188 8.78125 -2.597656 9.125 -2.984375 C 9.46875 -3.367188 9.785156 -3.742188 10.078125 -4.109375 C 10.378906 -4.472656 10.628906 -4.800781 10.828125 -5.09375 C 11.035156 -5.394531 11.1875 -5.609375 11.28125 -5.734375 C 11.363281 -5.867188 11.46875 -5.957031 11.59375 -6 C 11.726562 -6.050781 11.84375 -6.050781 11.9375 -6 C 12.039062 -5.957031 12.101562 -5.863281 12.125 -5.71875 C 12.15625 -5.570312 12.097656 -5.375 11.953125 -5.125 C 11.847656 -4.957031 11.675781 -4.691406 11.4375 -4.328125 C 11.207031 -3.972656 10.921875 -3.578125 10.578125 -3.140625 C 10.242188 -2.703125 9.875 -2.25 9.46875 -1.78125 C 9.0625 -1.3125 8.632812 -0.882812 8.1875 -0.5 C 7.738281 -0.113281 7.285156 0.195312 6.828125 0.4375 C 6.378906 0.6875 5.953125 0.8125 5.546875 0.8125 C 5.117188 0.8125 4.765625 0.726562 4.484375 0.5625 C 4.210938 0.394531 3.988281 0.195312 3.8125 -0.03125 C 3.644531 -0.269531 3.523438 -0.53125 3.453125 -0.8125 C 3.378906 -1.101562 3.347656 -1.375 3.359375 -1.625 C 3.378906 -1.8125 3.429688 -2.015625 3.515625 -2.234375 C 3.609375 -2.460938 3.71875 -2.691406 3.84375 -2.921875 C 3.96875 -3.160156 4.097656 -3.398438 4.234375 -3.640625 C 4.367188 -3.878906 4.492188 -4.113281 4.609375 -4.34375 C 4.890625 -4.8125 5.113281 -5.210938 5.28125 -5.546875 C 5.457031 -5.890625 5.546875 -6.175781 5.546875 -6.40625 C 5.546875 -6.550781 5.507812 -6.679688 5.4375 -6.796875 C 5.375 -6.910156 5.269531 -6.96875 5.125 -6.96875 C 5.03125 -6.96875 4.960938 -6.960938 4.921875 -6.953125 C 4.878906 -6.941406 4.835938 -6.9375 4.796875 -6.9375 C 4.753906 -6.9375 4.695312 -6.929688 4.625 -6.921875 C 4.550781 -6.921875 4.441406 -6.921875 4.296875 -6.921875 C 4.078125 -6.921875 3.894531 -6.953125 3.75 -7.015625 C 3.601562 -7.078125 3.46875 -7.128906 3.34375 -7.171875 C 3.269531 -7.054688 3.117188 -6.804688 2.890625 -6.421875 C 2.660156 -6.046875 2.394531 -5.601562 2.09375 -5.09375 C 1.789062 -4.59375 1.472656 -4.0625 1.140625 -3.5 C 0.804688 -2.945312 0.488281 -2.429688 0.1875 -1.953125 C -0.101562 -1.472656 -0.347656 -1.0625 -0.546875 -0.71875 C -0.753906 -0.382812 -0.882812 -0.1875 -0.9375 -0.125 Z M -0.9375 -0.125 "/></g></g></g><g fill="#ffffff" fill-opacity="1"><g transform="translate(143.984191, 93.513956)"><g><path d="M 11.4375 -1.125 C 11.4375 -1.46875 11.472656 -1.859375 11.546875 -2.296875 C 11.617188 -2.742188 11.710938 -3.203125 11.828125 -3.671875 C 11.941406 -4.140625 12.054688 -4.59375 12.171875 -5.03125 C 12.285156 -5.46875 12.382812 -5.859375 12.46875 -6.203125 C 12.5625 -6.628906 12.550781 -6.957031 12.4375 -7.1875 C 12.320312 -7.414062 12.125 -7.53125 11.84375 -7.53125 C 11.71875 -7.53125 11.460938 -7.414062 11.078125 -7.1875 C 10.691406 -6.957031 10.273438 -6.5625 9.828125 -6 C 9.378906 -5.4375 8.9375 -4.675781 8.5 -3.71875 C 8.070312 -2.757812 7.734375 -1.546875 7.484375 -0.078125 C 7.171875 0.0859375 6.875 0.195312 6.59375 0.25 C 6.445312 0.28125 6.316406 0.300781 6.203125 0.3125 C 5.878906 0.332031 5.664062 0.28125 5.5625 0.15625 C 5.46875 0.03125 5.488281 -0.265625 5.625 -0.734375 C 5.6875 -0.960938 5.800781 -1.328125 5.96875 -1.828125 C 6.144531 -2.335938 6.3125 -2.890625 6.46875 -3.484375 C 6.632812 -4.085938 6.78125 -4.6875 6.90625 -5.28125 C 7.03125 -5.882812 7.09375 -6.40625 7.09375 -6.84375 C 7.09375 -7.15625 7.035156 -7.367188 6.921875 -7.484375 C 6.816406 -7.597656 6.671875 -7.65625 6.484375 -7.65625 C 6.328125 -7.65625 6.078125 -7.570312 5.734375 -7.40625 C 5.390625 -7.25 5.003906 -6.929688 4.578125 -6.453125 C 4.160156 -5.972656 3.742188 -5.3125 3.328125 -4.46875 C 2.910156 -3.632812 2.550781 -2.546875 2.25 -1.203125 L 2.25 -1.25 C 2.21875 -1.125 2.1875 -0.992188 2.15625 -0.859375 C 2.125 -0.742188 2.097656 -0.617188 2.078125 -0.484375 C 2.066406 -0.359375 2.046875 -0.238281 2.015625 -0.125 L 0.78125 0.421875 C 0.695312 0.453125 0.59375 0.472656 0.46875 0.484375 C 0.351562 0.503906 0.238281 0.484375 0.125 0.421875 C 0.0195312 0.367188 -0.0507812 0.25 -0.09375 0.0625 C -0.144531 -0.113281 -0.128906 -0.378906 -0.046875 -0.734375 L 1.5 -7.140625 C 1.550781 -7.347656 1.59375 -7.550781 1.625 -7.75 C 1.65625 -7.925781 1.671875 -8.097656 1.671875 -8.265625 C 1.679688 -8.441406 1.671875 -8.585938 1.640625 -8.703125 C 1.921875 -8.835938 2.164062 -8.9375 2.375 -9 C 2.59375 -9.070312 2.765625 -9.125 2.890625 -9.15625 C 3.054688 -9.195312 3.195312 -9.21875 3.3125 -9.21875 C 3.832031 -9.21875 4.003906 -8.769531 3.828125 -7.875 C 3.765625 -7.613281 3.664062 -7.226562 3.53125 -6.71875 C 3.84375 -7.113281 4.171875 -7.484375 4.515625 -7.828125 C 4.867188 -8.179688 5.226562 -8.5 5.59375 -8.78125 C 5.957031 -9.0625 6.320312 -9.28125 6.6875 -9.4375 C 7.050781 -9.601562 7.414062 -9.6875 7.78125 -9.6875 C 8.050781 -9.6875 8.28125 -9.601562 8.46875 -9.4375 C 8.664062 -9.28125 8.816406 -9.066406 8.921875 -8.796875 C 9.023438 -8.523438 9.082031 -8.203125 9.09375 -7.828125 C 9.113281 -7.460938 9.097656 -7.085938 9.046875 -6.703125 C 9.316406 -7.046875 9.609375 -7.390625 9.921875 -7.734375 C 10.242188 -8.085938 10.578125 -8.40625 10.921875 -8.6875 C 11.273438 -8.96875 11.640625 -9.195312 12.015625 -9.375 C 12.398438 -9.550781 12.78125 -9.640625 13.15625 -9.640625 C 13.59375 -9.640625 13.929688 -9.507812 14.171875 -9.25 C 14.410156 -8.988281 14.570312 -8.648438 14.65625 -8.234375 C 14.75 -7.828125 14.773438 -7.382812 14.734375 -6.90625 C 14.691406 -6.4375 14.625 -5.984375 14.53125 -5.546875 L 13.6875 -2.234375 C 13.507812 -1.410156 13.679688 -1 14.203125 -1 C 14.609375 -1 15.054688 -1.195312 15.546875 -1.59375 C 16.046875 -1.988281 16.523438 -2.453125 16.984375 -2.984375 C 17.453125 -3.523438 17.890625 -4.082031 18.296875 -4.65625 C 18.710938 -5.226562 19.054688 -5.6875 19.328125 -6.03125 C 19.429688 -6.144531 19.535156 -6.207031 19.640625 -6.21875 C 19.742188 -6.238281 19.832031 -6.21875 19.90625 -6.15625 C 19.976562 -6.101562 20.019531 -6.007812 20.03125 -5.875 C 20.039062 -5.75 20 -5.585938 19.90625 -5.390625 C 19.570312 -4.828125 19.164062 -4.195312 18.6875 -3.5 C 18.21875 -2.800781 17.703125 -2.148438 17.140625 -1.546875 C 16.578125 -0.941406 15.972656 -0.429688 15.328125 -0.015625 C 14.691406 0.390625 14.03125 0.59375 13.34375 0.59375 C 13.113281 0.59375 12.890625 0.566406 12.671875 0.515625 C 12.453125 0.460938 12.25 0.367188 12.0625 0.234375 C 11.875 0.109375 11.722656 -0.0625 11.609375 -0.28125 C 11.492188 -0.5 11.4375 -0.78125 11.4375 -1.125 Z M 11.4375 -1.125 "/></g></g></g><g fill="#ffffff" fill-opacity="1"><g transform="translate(162.016816, 93.513956)"><g><path d="M 12.59375 -4.875 C 12.363281 -4.550781 12.066406 -4.144531 11.703125 -3.65625 C 11.335938 -3.175781 10.960938 -2.695312 10.578125 -2.21875 C 10.203125 -1.738281 9.828125 -1.296875 9.453125 -0.890625 C 9.085938 -0.492188 8.78125 -0.210938 8.53125 -0.046875 C 8.375 0.046875 8.1875 0.125 7.96875 0.1875 C 7.757812 0.257812 7.546875 0.300781 7.328125 0.3125 C 7.109375 0.332031 6.898438 0.320312 6.703125 0.28125 C 6.503906 0.238281 6.332031 0.171875 6.1875 0.078125 C 6.039062 -0.0351562 5.914062 -0.203125 5.8125 -0.421875 C 5.726562 -0.597656 5.648438 -0.832031 5.578125 -1.125 C 5.503906 -1.425781 5.476562 -1.796875 5.5 -2.234375 C 5.101562 -1.578125 4.664062 -1.070312 4.1875 -0.71875 C 3.71875 -0.375 3.269531 -0.117188 2.84375 0.046875 C 2.351562 0.222656 1.863281 0.332031 1.375 0.375 C 1.144531 0.375 0.898438 0.296875 0.640625 0.140625 C 0.378906 -0.015625 0.160156 -0.257812 -0.015625 -0.59375 C -0.203125 -0.9375 -0.316406 -1.375 -0.359375 -1.90625 C -0.410156 -2.4375 -0.347656 -3.066406 -0.171875 -3.796875 C 0.0546875 -4.796875 0.421875 -5.703125 0.921875 -6.515625 C 1.421875 -7.335938 1.960938 -8.039062 2.546875 -8.625 C 3.140625 -9.207031 3.722656 -9.644531 4.296875 -9.9375 C 4.867188 -10.226562 5.34375 -10.359375 5.71875 -10.328125 C 6.15625 -10.242188 6.515625 -10.113281 6.796875 -9.9375 C 7.023438 -9.769531 7.175781 -9.523438 7.25 -9.203125 C 7.320312 -8.890625 7.1875 -8.472656 6.84375 -7.953125 C 7.070312 -7.992188 7.265625 -8.023438 7.421875 -8.046875 C 7.578125 -8.066406 7.695312 -8.078125 7.78125 -8.078125 C 7.875 -8.078125 7.9375 -8.066406 7.96875 -8.046875 C 7.988281 -8.015625 8 -7.945312 8 -7.84375 C 8 -7.738281 7.972656 -7.546875 7.921875 -7.265625 C 7.878906 -6.984375 7.804688 -6.601562 7.703125 -6.125 C 7.609375 -5.65625 7.476562 -5.046875 7.3125 -4.296875 C 7.28125 -4.148438 7.25 -4.015625 7.21875 -3.890625 C 7.195312 -3.765625 7.171875 -3.640625 7.140625 -3.515625 C 7.117188 -3.398438 7.09375 -3.257812 7.0625 -3.09375 C 7.03125 -2.925781 6.988281 -2.722656 6.9375 -2.484375 C 6.925781 -2.328125 6.921875 -2.160156 6.921875 -1.984375 C 6.929688 -1.816406 6.960938 -1.660156 7.015625 -1.515625 C 7.066406 -1.367188 7.144531 -1.25 7.25 -1.15625 C 7.351562 -1.070312 7.503906 -1.03125 7.703125 -1.03125 C 7.867188 -1.03125 8.082031 -1.128906 8.34375 -1.328125 C 8.601562 -1.535156 8.878906 -1.796875 9.171875 -2.109375 C 9.472656 -2.429688 9.78125 -2.785156 10.09375 -3.171875 C 10.414062 -3.554688 10.710938 -3.925781 10.984375 -4.28125 C 11.265625 -4.644531 11.515625 -4.96875 11.734375 -5.25 C 11.960938 -5.53125 12.125 -5.734375 12.21875 -5.859375 C 12.351562 -6.003906 12.484375 -6.085938 12.609375 -6.109375 C 12.742188 -6.140625 12.84375 -6.101562 12.90625 -6 C 12.96875 -5.90625 12.976562 -5.757812 12.9375 -5.5625 C 12.894531 -5.375 12.78125 -5.144531 12.59375 -4.875 Z M 5.390625 -3.796875 C 5.472656 -4.128906 5.570312 -4.515625 5.6875 -4.953125 C 5.800781 -5.398438 5.898438 -5.828125 5.984375 -6.234375 C 6.066406 -6.640625 6.128906 -6.976562 6.171875 -7.25 C 6.210938 -7.519531 6.203125 -7.644531 6.140625 -7.625 C 6.054688 -7.613281 5.960938 -7.59375 5.859375 -7.5625 C 5.773438 -7.53125 5.664062 -7.503906 5.53125 -7.484375 C 5.40625 -7.460938 5.28125 -7.4375 5.15625 -7.40625 C 5.28125 -7.664062 5.351562 -7.878906 5.375 -8.046875 C 5.40625 -8.222656 5.410156 -8.363281 5.390625 -8.46875 C 5.378906 -8.582031 5.347656 -8.671875 5.296875 -8.734375 C 5.117188 -8.878906 4.804688 -8.757812 4.359375 -8.375 C 3.910156 -7.988281 3.390625 -7.28125 2.796875 -6.25 C 2.546875 -5.832031 2.347656 -5.378906 2.203125 -4.890625 C 2.054688 -4.410156 1.953125 -3.957031 1.890625 -3.53125 C 1.835938 -3.101562 1.828125 -2.726562 1.859375 -2.40625 C 1.890625 -2.09375 1.957031 -1.890625 2.0625 -1.796875 C 2.238281 -1.609375 2.441406 -1.519531 2.671875 -1.53125 C 2.898438 -1.539062 3.132812 -1.601562 3.375 -1.71875 C 3.613281 -1.84375 3.847656 -2.003906 4.078125 -2.203125 C 4.316406 -2.398438 4.53125 -2.601562 4.71875 -2.8125 C 4.90625 -3.03125 5.0625 -3.226562 5.1875 -3.40625 C 5.3125 -3.59375 5.378906 -3.722656 5.390625 -3.796875 Z M 5.390625 -3.796875 "/></g></g></g><g fill="#ffffff" fill-opacity="1"><g transform="translate(172.959062, 93.513956)"><g><path d="M 9.046875 -6.203125 C 9.117188 -6.304688 9.207031 -6.367188 9.3125 -6.390625 C 9.414062 -6.410156 9.5 -6.394531 9.5625 -6.34375 C 9.632812 -6.300781 9.671875 -6.222656 9.671875 -6.109375 C 9.679688 -5.992188 9.640625 -5.835938 9.546875 -5.640625 C 9.210938 -5.023438 8.78125 -4.351562 8.25 -3.625 C 7.71875 -2.90625 7.15625 -2.226562 6.5625 -1.59375 C 5.976562 -0.96875 5.410156 -0.453125 4.859375 -0.046875 C 4.304688 0.359375 3.835938 0.5625 3.453125 0.5625 C 2.921875 0.5625 2.472656 0.453125 2.109375 0.234375 C 1.753906 0.0234375 1.472656 -0.226562 1.265625 -0.53125 C 1.054688 -0.84375 0.910156 -1.179688 0.828125 -1.546875 C 0.753906 -1.921875 0.734375 -2.265625 0.765625 -2.578125 C 0.773438 -2.835938 0.828125 -3.304688 0.921875 -3.984375 C 1.023438 -4.660156 1.160156 -5.445312 1.328125 -6.34375 C 1.492188 -7.238281 1.675781 -8.195312 1.875 -9.21875 C 2.082031 -10.238281 2.300781 -11.222656 2.53125 -12.171875 C 2.25 -12.140625 1.96875 -12.101562 1.6875 -12.0625 C 1.414062 -12.03125 1.164062 -12.015625 0.9375 -12.015625 C 0.40625 -12.015625 -0.0859375 -12.078125 -0.546875 -12.203125 C -1.015625 -12.328125 -1.363281 -12.445312 -1.59375 -12.5625 C -1.726562 -12.625 -1.785156 -12.71875 -1.765625 -12.84375 C -1.742188 -12.96875 -1.691406 -13.085938 -1.609375 -13.203125 C -1.535156 -13.328125 -1.4375 -13.4375 -1.3125 -13.53125 C -1.1875 -13.625 -1.078125 -13.671875 -0.984375 -13.671875 C -0.671875 -13.640625 -0.335938 -13.609375 0.015625 -13.578125 C 0.378906 -13.554688 0.773438 -13.550781 1.203125 -13.5625 C 1.515625 -13.582031 1.8125 -13.609375 2.09375 -13.640625 C 2.382812 -13.671875 2.664062 -13.710938 2.9375 -13.765625 C 3.15625 -14.546875 3.363281 -15.226562 3.5625 -15.8125 C 3.769531 -16.394531 3.957031 -16.800781 4.125 -17.03125 C 4.175781 -17.113281 4.285156 -17.179688 4.453125 -17.234375 C 4.628906 -17.296875 4.8125 -17.335938 5 -17.359375 C 5.195312 -17.378906 5.382812 -17.378906 5.5625 -17.359375 C 5.75 -17.335938 5.882812 -17.273438 5.96875 -17.171875 C 6.039062 -17.046875 6.066406 -16.710938 6.046875 -16.171875 C 6.035156 -15.628906 5.953125 -14.941406 5.796875 -14.109375 C 6.484375 -14.109375 7.09375 -14.070312 7.625 -14 C 8.15625 -13.925781 8.609375 -13.84375 8.984375 -13.75 C 9.359375 -13.664062 9.660156 -13.578125 9.890625 -13.484375 C 10.117188 -13.390625 10.289062 -13.328125 10.40625 -13.296875 C 10.519531 -13.265625 10.578125 -13.179688 10.578125 -13.046875 C 10.585938 -12.921875 10.5625 -12.785156 10.5 -12.640625 C 10.445312 -12.503906 10.351562 -12.382812 10.21875 -12.28125 C 10.09375 -12.1875 9.953125 -12.15625 9.796875 -12.1875 C 9.628906 -12.207031 9.441406 -12.238281 9.234375 -12.28125 C 9.035156 -12.332031 8.789062 -12.375 8.5 -12.40625 C 8.21875 -12.445312 7.878906 -12.484375 7.484375 -12.515625 C 7.085938 -12.546875 6.628906 -12.5625 6.109375 -12.5625 C 6.015625 -12.5625 5.90625 -12.554688 5.78125 -12.546875 C 5.65625 -12.535156 5.523438 -12.53125 5.390625 -12.53125 C 5.328125 -12.269531 5.265625 -12.015625 5.203125 -11.765625 C 5.148438 -11.515625 5.078125 -11.25 4.984375 -10.96875 C 4.765625 -10.3125 4.519531 -9.597656 4.25 -8.828125 C 4 -8.160156 3.703125 -7.390625 3.359375 -6.515625 C 3.015625 -5.648438 2.628906 -4.726562 2.203125 -3.75 C 2.109375 -3.050781 2.117188 -2.515625 2.234375 -2.140625 C 2.359375 -1.773438 2.515625 -1.507812 2.703125 -1.34375 C 2.910156 -1.164062 3.171875 -1.070312 3.484375 -1.0625 C 3.734375 -1.019531 4.03125 -1.101562 4.375 -1.3125 C 4.726562 -1.519531 5.09375 -1.796875 5.46875 -2.140625 C 5.84375 -2.484375 6.222656 -2.859375 6.609375 -3.265625 C 6.992188 -3.671875 7.347656 -4.066406 7.671875 -4.453125 C 8.003906 -4.847656 8.289062 -5.207031 8.53125 -5.53125 C 8.78125 -5.851562 8.953125 -6.078125 9.046875 -6.203125 Z M 9.046875 -6.203125 "/></g></g></g><g fill="#ffffff" fill-opacity="1"><g transform="translate(180.540124, 93.513956)"><g><path d="M 5.390625 -14.453125 C 5.347656 -14.273438 5.253906 -14.097656 5.109375 -13.921875 C 4.972656 -13.753906 4.816406 -13.613281 4.640625 -13.5 C 4.472656 -13.394531 4.300781 -13.328125 4.125 -13.296875 C 3.945312 -13.265625 3.800781 -13.296875 3.6875 -13.390625 C 3.34375 -13.660156 3.160156 -13.945312 3.140625 -14.25 C 3.117188 -14.550781 3.191406 -14.832031 3.359375 -15.09375 C 3.523438 -15.363281 3.726562 -15.59375 3.96875 -15.78125 C 4.21875 -15.976562 4.429688 -16.09375 4.609375 -16.125 C 4.785156 -16.15625 4.9375 -16.113281 5.0625 -16 C 5.1875 -15.894531 5.28125 -15.753906 5.34375 -15.578125 C 5.414062 -15.410156 5.453125 -15.222656 5.453125 -15.015625 C 5.460938 -14.804688 5.441406 -14.617188 5.390625 -14.453125 Z M 2.015625 -9.21875 C 2.097656 -9.320312 2.253906 -9.40625 2.484375 -9.46875 C 2.710938 -9.53125 2.945312 -9.582031 3.1875 -9.625 C 3.4375 -9.664062 3.660156 -9.691406 3.859375 -9.703125 C 4.066406 -9.710938 4.1875 -9.707031 4.21875 -9.6875 C 4.238281 -9.675781 4.195312 -9.503906 4.09375 -9.171875 C 4 -8.847656 3.878906 -8.460938 3.734375 -8.015625 C 3.585938 -7.578125 3.429688 -7.125 3.265625 -6.65625 C 3.097656 -6.195312 2.972656 -5.816406 2.890625 -5.515625 C 2.804688 -5.222656 2.707031 -4.890625 2.59375 -4.515625 C 2.476562 -4.148438 2.375 -3.789062 2.28125 -3.4375 C 2.195312 -3.09375 2.140625 -2.765625 2.109375 -2.453125 C 2.078125 -2.140625 2.101562 -1.898438 2.1875 -1.734375 C 2.269531 -1.546875 2.359375 -1.414062 2.453125 -1.34375 C 2.546875 -1.269531 2.648438 -1.234375 2.765625 -1.234375 C 3.097656 -1.234375 3.515625 -1.410156 4.015625 -1.765625 C 4.515625 -2.128906 5.019531 -2.554688 5.53125 -3.046875 C 6.050781 -3.546875 6.53125 -4.050781 6.96875 -4.5625 C 7.40625 -5.082031 7.734375 -5.5 7.953125 -5.8125 C 8.078125 -5.976562 8.207031 -6.082031 8.34375 -6.125 C 8.488281 -6.175781 8.601562 -6.171875 8.6875 -6.109375 C 8.78125 -6.046875 8.832031 -5.9375 8.84375 -5.78125 C 8.851562 -5.632812 8.800781 -5.46875 8.6875 -5.28125 C 8.425781 -4.820312 8.039062 -4.273438 7.53125 -3.640625 C 7.019531 -3.015625 6.476562 -2.410156 5.90625 -1.828125 C 5.332031 -1.242188 4.769531 -0.75 4.21875 -0.34375 C 3.675781 0.0625 3.234375 0.273438 2.890625 0.296875 C 2.617188 0.304688 2.347656 0.257812 2.078125 0.15625 C 1.804688 0.0507812 1.554688 -0.09375 1.328125 -0.28125 C 1.109375 -0.46875 0.925781 -0.6875 0.78125 -0.9375 C 0.632812 -1.195312 0.554688 -1.460938 0.546875 -1.734375 C 0.492188 -2.148438 0.488281 -2.710938 0.53125 -3.421875 C 0.582031 -4.128906 0.671875 -4.851562 0.796875 -5.59375 C 0.929688 -6.34375 1.101562 -7.050781 1.3125 -7.71875 C 1.519531 -8.394531 1.753906 -8.894531 2.015625 -9.21875 Z M 2.015625 -9.21875 "/></g></g></g><g fill="#ffffff" fill-opacity="1"><g transform="translate(187.43423, 93.513956)"><g><path d="M 7.265625 -3.90625 C 7.097656 -3.28125 6.875 -2.695312 6.59375 -2.15625 C 6.320312 -1.613281 5.992188 -1.144531 5.609375 -0.75 C 5.222656 -0.363281 4.785156 -0.0625 4.296875 0.15625 C 3.816406 0.375 3.289062 0.484375 2.71875 0.484375 C 2.050781 0.484375 1.523438 0.335938 1.140625 0.046875 C 0.753906 -0.234375 0.46875 -0.582031 0.28125 -1 C 0.09375 -1.425781 -0.0195312 -1.894531 -0.0625 -2.40625 C -0.101562 -2.914062 -0.125 -3.390625 -0.125 -3.828125 C -0.125 -4.140625 -0.0859375 -4.484375 -0.015625 -4.859375 C 0.0546875 -5.234375 0.15625 -5.613281 0.28125 -6 C 0.414062 -6.394531 0.585938 -6.789062 0.796875 -7.1875 C 1.003906 -7.582031 1.242188 -7.941406 1.515625 -8.265625 C 1.617188 -8.546875 1.769531 -8.789062 1.96875 -9 C 2.175781 -9.21875 2.414062 -9.394531 2.6875 -9.53125 C 2.957031 -9.664062 3.25 -9.769531 3.5625 -9.84375 C 3.875 -9.925781 4.175781 -9.96875 4.46875 -9.96875 C 4.519531 -9.96875 4.5625 -9.957031 4.59375 -9.9375 C 4.632812 -9.914062 4.679688 -9.898438 4.734375 -9.890625 C 4.941406 -9.867188 5.207031 -9.785156 5.53125 -9.640625 C 5.851562 -9.492188 6.164062 -9.269531 6.46875 -8.96875 C 6.769531 -8.675781 7.023438 -8.304688 7.234375 -7.859375 C 7.453125 -7.410156 7.5625 -6.867188 7.5625 -6.234375 C 7.5625 -6.097656 7.550781 -5.9375 7.53125 -5.75 C 7.519531 -5.5625 7.503906 -5.40625 7.484375 -5.28125 C 7.859375 -5.425781 8.25 -5.601562 8.65625 -5.8125 C 9.070312 -6.03125 9.46875 -6.253906 9.84375 -6.484375 C 10.226562 -6.722656 10.582031 -6.960938 10.90625 -7.203125 C 11.238281 -7.453125 11.503906 -7.675781 11.703125 -7.875 C 11.867188 -8.019531 12.007812 -8.097656 12.125 -8.109375 C 12.238281 -8.128906 12.316406 -8.097656 12.359375 -8.015625 C 12.410156 -7.941406 12.421875 -7.828125 12.390625 -7.671875 C 12.359375 -7.523438 12.269531 -7.363281 12.125 -7.1875 C 12.039062 -7.09375 11.832031 -6.894531 11.5 -6.59375 C 11.164062 -6.300781 10.769531 -5.984375 10.3125 -5.640625 C 9.851562 -5.296875 9.351562 -4.957031 8.8125 -4.625 C 8.269531 -4.300781 7.753906 -4.0625 7.265625 -3.90625 Z M 3.109375 -7.625 C 3.066406 -7.476562 3.046875 -7.328125 3.046875 -7.171875 C 3.046875 -6.898438 3.0625 -6.617188 3.09375 -6.328125 C 3.125 -6.046875 3.203125 -5.789062 3.328125 -5.5625 C 3.460938 -5.332031 3.671875 -5.140625 3.953125 -4.984375 C 4.242188 -4.835938 4.644531 -4.765625 5.15625 -4.765625 C 5.238281 -4.765625 5.316406 -4.765625 5.390625 -4.765625 C 5.472656 -4.773438 5.554688 -4.789062 5.640625 -4.8125 C 5.691406 -5.019531 5.738281 -5.207031 5.78125 -5.375 C 5.820312 -5.550781 5.84375 -5.707031 5.84375 -5.84375 C 5.875 -6.15625 5.875 -6.472656 5.84375 -6.796875 C 5.8125 -7.117188 5.75 -7.414062 5.65625 -7.6875 C 5.5625 -7.957031 5.445312 -8.175781 5.3125 -8.34375 C 5.175781 -8.519531 5.007812 -8.609375 4.8125 -8.609375 C 4.5 -8.609375 4.195312 -8.519531 3.90625 -8.34375 C 3.625 -8.175781 3.359375 -7.9375 3.109375 -7.625 Z M 1.546875 -3.3125 C 1.546875 -3.019531 1.5625 -2.726562 1.59375 -2.4375 C 1.625 -2.15625 1.6875 -1.898438 1.78125 -1.671875 C 1.882812 -1.453125 2.015625 -1.273438 2.171875 -1.140625 C 2.335938 -1.003906 2.554688 -0.9375 2.828125 -0.9375 C 3.117188 -0.9375 3.382812 -1.003906 3.625 -1.140625 C 3.875 -1.273438 4.097656 -1.453125 4.296875 -1.671875 C 4.492188 -1.898438 4.664062 -2.15625 4.8125 -2.4375 C 4.96875 -2.726562 5.101562 -3.03125 5.21875 -3.34375 C 5.101562 -3.320312 4.992188 -3.304688 4.890625 -3.296875 C 4.785156 -3.285156 4.671875 -3.28125 4.546875 -3.28125 C 3.921875 -3.28125 3.378906 -3.460938 2.921875 -3.828125 C 2.472656 -4.203125 2.128906 -4.675781 1.890625 -5.25 C 1.785156 -4.90625 1.703125 -4.566406 1.640625 -4.234375 C 1.578125 -3.910156 1.546875 -3.601562 1.546875 -3.3125 Z M 1.546875 -3.3125 "/></g></g></g><g fill="#ffffff" fill-opacity="1"><g transform="translate(197.321506, 93.513956)"><g><path d="M 7.28125 0.609375 C 6.90625 0.609375 6.582031 0.539062 6.3125 0.40625 C 6.039062 0.269531 5.820312 0.0859375 5.65625 -0.140625 C 5.5 -0.367188 5.394531 -0.632812 5.34375 -0.9375 C 5.300781 -1.25 5.316406 -1.570312 5.390625 -1.90625 C 5.441406 -2.132812 5.523438 -2.441406 5.640625 -2.828125 C 5.753906 -3.210938 5.875 -3.628906 6 -4.078125 C 6.125 -4.535156 6.238281 -4.988281 6.34375 -5.4375 C 6.445312 -5.882812 6.515625 -6.289062 6.546875 -6.65625 C 6.578125 -7.03125 6.5625 -7.332031 6.5 -7.5625 C 6.4375 -7.800781 6.296875 -7.921875 6.078125 -7.921875 C 5.816406 -7.921875 5.546875 -7.832031 5.265625 -7.65625 C 4.992188 -7.488281 4.710938 -7.257812 4.421875 -6.96875 C 4.140625 -6.675781 3.851562 -6.335938 3.5625 -5.953125 C 3.28125 -5.566406 3 -5.171875 2.71875 -4.765625 C 2.570312 -4.203125 2.445312 -3.710938 2.34375 -3.296875 C 2.25 -2.878906 2.164062 -2.503906 2.09375 -2.171875 C 2.019531 -1.835938 1.953125 -1.539062 1.890625 -1.28125 C 1.828125 -1.03125 1.769531 -0.789062 1.71875 -0.5625 C 1.664062 -0.394531 1.515625 -0.234375 1.265625 -0.078125 C 1.023438 0.0664062 0.765625 0.1875 0.484375 0.28125 C 0.210938 0.382812 -0.0234375 0.4375 -0.234375 0.4375 C -0.441406 0.4375 -0.523438 0.363281 -0.484375 0.21875 C -0.472656 0.125 -0.421875 -0.09375 -0.328125 -0.4375 C -0.242188 -0.78125 -0.140625 -1.1875 -0.015625 -1.65625 C 0.109375 -2.125 0.234375 -2.617188 0.359375 -3.140625 C 0.492188 -3.660156 0.617188 -4.160156 0.734375 -4.640625 C 0.816406 -5.015625 0.90625 -5.429688 1 -5.890625 C 1.082031 -6.285156 1.1875 -6.742188 1.3125 -7.265625 C 1.4375 -7.785156 1.578125 -8.359375 1.734375 -8.984375 C 1.847656 -9.078125 1.96875 -9.148438 2.09375 -9.203125 C 2.21875 -9.265625 2.347656 -9.3125 2.484375 -9.34375 C 2.609375 -9.394531 2.742188 -9.429688 2.890625 -9.453125 C 3.023438 -9.453125 3.15625 -9.441406 3.28125 -9.421875 C 3.394531 -9.398438 3.515625 -9.367188 3.640625 -9.328125 C 3.765625 -9.296875 3.875 -9.238281 3.96875 -9.15625 C 3.925781 -9.039062 3.867188 -8.878906 3.796875 -8.671875 C 3.734375 -8.460938 3.671875 -8.242188 3.609375 -8.015625 C 3.546875 -7.753906 3.460938 -7.488281 3.359375 -7.21875 C 3.578125 -7.507812 3.816406 -7.804688 4.078125 -8.109375 C 4.347656 -8.410156 4.644531 -8.679688 4.96875 -8.921875 C 5.289062 -9.171875 5.628906 -9.375 5.984375 -9.53125 C 6.347656 -9.6875 6.71875 -9.765625 7.09375 -9.765625 C 7.40625 -9.765625 7.679688 -9.671875 7.921875 -9.484375 C 8.171875 -9.304688 8.363281 -9.054688 8.5 -8.734375 C 8.632812 -8.421875 8.710938 -8.039062 8.734375 -7.59375 C 8.765625 -7.15625 8.707031 -6.675781 8.5625 -6.15625 L 8.296875 -5.078125 C 8.210938 -4.734375 8.109375 -4.328125 7.984375 -3.859375 C 7.859375 -3.398438 7.707031 -2.890625 7.53125 -2.328125 C 7.4375 -1.972656 7.398438 -1.660156 7.421875 -1.390625 C 7.441406 -1.128906 7.601562 -1 7.90625 -1 C 8.195312 -1 8.566406 -1.175781 9.015625 -1.53125 C 9.460938 -1.894531 9.914062 -2.332031 10.375 -2.84375 C 10.832031 -3.351562 11.265625 -3.875 11.671875 -4.40625 C 12.085938 -4.9375 12.398438 -5.363281 12.609375 -5.6875 C 12.753906 -5.90625 12.890625 -6.046875 13.015625 -6.109375 C 13.148438 -6.171875 13.253906 -6.175781 13.328125 -6.125 C 13.410156 -6.082031 13.453125 -5.972656 13.453125 -5.796875 C 13.453125 -5.628906 13.382812 -5.414062 13.25 -5.15625 C 13.132812 -4.925781 12.957031 -4.625 12.71875 -4.25 C 12.476562 -3.875 12.195312 -3.472656 11.875 -3.046875 C 11.550781 -2.617188 11.195312 -2.1875 10.8125 -1.75 C 10.4375 -1.320312 10.046875 -0.929688 9.640625 -0.578125 C 9.234375 -0.222656 8.828125 0.0625 8.421875 0.28125 C 8.023438 0.5 7.644531 0.609375 7.28125 0.609375 Z M 7.28125 0.609375 "/></g></g></g></svg>